<svg width="101" height="100" fill="none" xmlns="http://www.w3.org/2000/svg"><path d="M56.15 70.65v7l-6.11 3.6-5.94-3.6v-7l5.94 3.6 6.11-3.6Zm-32.7-24.24L29.4 50v12.02l10.22 6.11v7l-16.16-9.52v-19.2Zm53.18 0v19.23l-16.34 9.53v-7.01l10.23-6.11V50l6.1-3.6Zm-16.37-9.53 6.11 3.6v7l-10.22 6.11v12.22l-5.94 3.6-5.93-3.6V53.6l-10.6-6.11v-7l6.1-3.6 10.23 6.11 10.25-6.11ZM33.71 52.52l5.93 3.6v7l-5.93-3.6v-7Zm32.66 0v7l-5.93 3.6v-7l5.93-3.6ZM29.4 30.77l6.11 3.6-6.11 3.58v7.01l-5.94-3.6v-7l5.94-3.6Zm41.3 0 6.11 3.6v7l-6.11 3.6v-7.02l-5.94-3.59 5.94-3.6Zm-20.65 0 6.11 3.6-6.11 3.61-5.94-3.59 5.94-3.62Zm0-12.02 16.33 9.53-5.93 3.59-10.23-6.11-10.42 6.11-5.91-3.6 16.16-9.52Z" fill="#F3BA2C"/></svg>