<svg width="101" height="100" viewBox="0 0 101 100" fill="none" xmlns="http://www.w3.org/2000/svg">
<path d="M77.5449 62.0341L73.9018 74.352L66.75 72.3961L77.5449 62.0341Z" fill="#E4761B" stroke="#E4761B" stroke-width="5.94955"/>
<path d="M66.75 72.3961L73.648 62.9449L77.5449 62.0341L66.75 72.3961Z" fill="#E4761B" stroke="#E4761B" stroke-width="5.94955"/>
<path d="M72.1797 52.7473L77.5398 62.0342L73.6429 62.9449L72.1797 52.7473ZM72.1797 52.7473L75.6287 50.3583L77.5398 62.0342L72.1797 52.7473Z" fill="#F6851B" stroke="#F6851B" stroke-width="5.94955"/>
<path d="M67.7891 45.7298L77.7031 41.6686L77.2104 43.8933L67.7891 45.7298ZM76.8968 46.5659L67.7891 45.7298L77.2104 43.8933L76.8968 46.5659Z" fill="#763D16" stroke="#763D16" stroke-width="5.94955"/>
<path d="M76.8968 46.5659L75.6277 50.3583L67.7891 45.7298L76.8968 46.5659ZM78.8826 42.6093L77.2103 43.8933L77.7031 41.6686L78.8826 42.6093ZM76.8968 46.5659L77.2103 43.8933L78.5392 44.9982L76.8968 46.5659Z" fill="#763D16" stroke="#763D16" stroke-width="5.94955"/>
<path d="M59.0547 69.395L61.5332 70.1863L66.744 72.3961L59.0547 69.395Z" fill="#E2761B" stroke="#E2761B" stroke-width="5.94955"/>
<path d="M75.631 50.3583L76.9001 46.5659L77.9901 47.402L75.631 50.3583ZM75.631 50.3583L65.3438 46.969L67.7924 45.7298L75.631 50.3583Z" fill="#763D16" stroke="#763D16" stroke-width="5.94955"/>
<path d="M70.241 34.0988L67.7924 45.7298L65.3438 46.9691L70.241 34.0988Z" fill="#763D16" stroke="#763D16" stroke-width="5.94955"/>
<path d="M77.7031 41.6687L67.7891 45.7298L70.2377 34.0988L77.7031 41.6687Z" fill="#763D16" stroke="#763D16" stroke-width="5.94955"/>
<path d="M70.2422 34.0988L80.5892 32.9043L77.7075 41.6687L70.2422 34.0988Z" fill="#763D16" stroke="#763D16" stroke-width="5.94955"/>
<path d="M75.631 50.3583L72.182 52.7472L65.3438 46.9691L75.631 50.3583Z" fill="#F6851B" stroke="#F6851B" stroke-width="5.94955"/>
<path d="M80.1412 24.5282L80.5892 32.9043L70.2422 34.0988L80.1412 24.5282Z" fill="#763D16" stroke="#763D16" stroke-width="5.94955"/>
<path d="M80.1431 24.5282L59.4641 39.5634L59.1953 29.3658L80.1431 24.5282Z" fill="#E2761B" stroke="#E2761B" stroke-width="5.94955"/>
<path d="M43.8125 28.1414L59.1911 29.3657L59.4599 39.5634L43.8125 28.1414Z" fill="#F6851B" stroke="#F6851B" stroke-width="5.94955"/>
<path d="M65.3436 46.9691L59.4609 39.5634L70.2409 34.0988L65.3436 46.9691Z" fill="#763D16" stroke="#763D16" stroke-width="5.94955"/>
<path d="M65.3403 46.9691L72.1786 52.7473L62.5781 53.8073L65.3403 46.9691Z" fill="#E4761B" stroke="#E4761B" stroke-width="5.94955"/>
<path d="M62.5815 53.8073L59.4609 39.5634L65.3436 46.9691L62.5815 53.8073Z" fill="#E4761B" stroke="#E4761B" stroke-width="5.94955"/>
<path d="M70.2409 34.0988L59.4609 39.5634L80.14 24.5282L70.2409 34.0988Z" fill="#763D16" stroke="#763D16" stroke-width="5.94955"/>
<path d="M43.9493 72.1572L48.8317 77.2486L42.1875 71.2016L43.9493 72.1572Z" fill="#C0AD9E" stroke="#C0AD9E" stroke-width="5.94955"/>
<path d="M66.75 72.3961L69.0643 63.6019L73.648 62.9449L66.75 72.3961Z" fill="#CD6116" stroke="#CD6116" stroke-width="5.94955"/>
<path d="M24.1484 47.6559L32.5992 38.7721L25.2384 46.5958L24.1484 47.6559Z" fill="#E2761B" stroke="#E2761B" stroke-width="5.94955"/>
<path d="M73.6441 62.9449L69.0604 63.6019L72.1809 52.7472L73.6441 62.9449ZM59.4599 39.5634L51.2331 39.2947L43.8125 28.1414L59.4599 39.5634Z" fill="#F6851B" stroke="#F6851B" stroke-width="5.94955"/>
<path d="M72.179 52.7473L69.0585 63.6019L68.8047 58.3015L72.179 52.7473Z" fill="#E4751F" stroke="#E4751F" stroke-width="5.94955"/>
<path d="M62.5781 53.8073L72.1786 52.7473L68.8042 58.3015L62.5781 53.8073Z" fill="#CD6116" stroke="#CD6116" stroke-width="5.94955"/>
<path d="M51.2344 39.2947L59.4612 39.5634L62.5817 53.8074L51.2344 39.2947Z" fill="#F6851B" stroke="#F6851B" stroke-width="5.94955"/>
<path d="M51.2344 39.2947L29.0324 18.75L43.8138 28.1414L51.2344 39.2947ZM43.7989 75.2777L24.5084 81.25L20.6562 66.5432L43.7989 75.2777Z" fill="#E4761B" stroke="#E4761B" stroke-width="5.94955"/>
<path d="M27.0156 51.3288L34.3018 45.6104L40.4085 47.0288L27.0156 51.3288Z" fill="#763D16" stroke="#763D16" stroke-width="5.94955"/>
<path d="M40.4114 47.0288L34.3047 45.6104L37.5745 32.113L40.4114 47.0288Z" fill="#763D16" stroke="#763D16" stroke-width="5.94955"/>
<path d="M25.2422 46.5958L34.3051 45.6104L27.0189 51.3288L25.2422 46.5958Z" fill="#763D16" stroke="#763D16" stroke-width="5.94955"/>
<path d="M68.8042 58.3015L65.0417 56.4053L62.5781 53.8073L68.8042 58.3015Z" fill="#CD6116" stroke="#CD6116" stroke-width="5.94955"/>
<path d="M25.2436 46.5958L24.6016 43.2065L34.3065 45.6104L25.2436 46.5958Z" fill="#763D16" stroke="#763D16" stroke-width="5.94955"/>
<path d="M64.2656 60.6755L65.042 56.4053L68.8046 58.3015L64.2656 60.6755Z" fill="#233447" stroke="#233447" stroke-width="5.94955"/>
<path d="M69.0584 63.6019L64.2656 60.6755L68.8046 58.3015L69.0584 63.6019Z" fill="#F6851B" stroke="#F6851B" stroke-width="5.94955"/>
<path d="M34.301 45.6104L24.596 43.2065L23.8047 40.3548L34.301 45.6104ZM37.5708 32.113L34.301 45.6104L23.8047 40.3548L37.5708 32.113ZM37.5708 32.113L51.2324 39.2947L40.4076 47.0288L37.5708 32.113Z" fill="#763D16" stroke="#763D16" stroke-width="5.94955"/>
<path d="M40.4062 47.0288L51.231 39.2947L56.0537 54.0313L40.4062 47.0288ZM56.0537 54.0313L41.0931 53.7177L40.4062 47.0288L56.0537 54.0313Z" fill="#E4761B" stroke="#E4761B" stroke-width="5.94955"/>
<path d="M27.0156 51.3288L40.4085 47.0288L41.0953 53.7177L27.0156 51.3288ZM62.5806 53.8073L56.0559 54.0313L51.2333 39.2947L62.5806 53.8073Z" fill="#F6851B" stroke="#F6851B" stroke-width="5.94955"/>
<path d="M65.0417 56.4053L64.2653 60.6755L62.5781 53.8073L65.0417 56.4053Z" fill="#CD6116" stroke="#CD6116" stroke-width="5.94955"/>
<path d="M29.0312 18.75L51.2332 39.2947L37.5716 32.113L29.0312 18.75Z" fill="#763D16" stroke="#763D16" stroke-width="5.94955"/>
<path d="M20.6562 66.5432L39.3794 65.7668L43.7989 75.2777L20.6562 66.5432Z" fill="#E4761B" stroke="#E4761B" stroke-width="5.94955"/>
<path d="M43.8023 75.2777L39.3828 65.7668L48.5801 65.3189L43.8023 75.2777Z" fill="#CD6116" stroke="#CD6116" stroke-width="5.94955"/>
<path d="M64.2689 60.6755L69.0617 63.6019L71.7044 69.828L64.2689 60.6755ZM41.0964 53.7177L20.6562 66.5432L27.0167 51.3288L41.0964 53.7177ZM39.3794 65.7668L20.6562 66.5432L41.0964 53.7177L39.3794 65.7668ZM62.5817 53.8073L63.806 58.2567L57.8935 58.6001L62.5817 53.8073ZM57.8935 58.6001L56.057 54.0313L62.5817 53.8073L57.8935 58.6001Z" fill="#F6851B" stroke="#F6851B" stroke-width="5.94955"/>
<path d="M48.8285 77.2486L43.7969 75.2777L61.2957 78.2191L48.8285 77.2486Z" fill="#C0AD9E" stroke="#C0AD9E" stroke-width="5.94955"/>
<path d="M27.0151 51.3288L24.1484 47.6559L25.2384 46.5958L27.0151 51.3288Z" fill="#763D16" stroke="#763D16" stroke-width="5.94955"/>
<path d="M63.2815 76.0392L61.2957 78.2191L43.7969 75.2777L63.2815 76.0392Z" fill="#D7C1B3" stroke="#D7C1B3" stroke-width="5.94955"/>
<path d="M64.2221 70.694L43.7969 75.2777L48.5747 65.3189L64.2221 70.694Z" fill="#E4761B" stroke="#E4761B" stroke-width="5.94955"/>
<path d="M43.7969 75.2777L64.2221 70.694L63.2815 76.0392L43.7969 75.2777Z" fill="#D7C1B3" stroke="#D7C1B3" stroke-width="5.94955"/>
<path d="M23.8047 40.3548L23.1328 28.873L37.5708 32.113L23.8047 40.3548ZM25.238 46.5958L23.2523 44.5802L24.596 43.2065L25.238 46.5958Z" fill="#763D16" stroke="#763D16" stroke-width="5.94955"/>
<path d="M52.7109 56.9876L56.0554 54.0313L55.5776 61.2578L52.7109 56.9876Z" fill="#CD6116" stroke="#CD6116" stroke-width="5.94955"/>
<path d="M56.0556 54.0313L52.7112 56.9876L47.8438 59.5109L56.0556 54.0313Z" fill="#CD6116" stroke="#CD6116" stroke-width="5.94955"/>
<path d="M71.7011 69.828L70.7903 69.1561L64.2656 60.6755L71.7011 69.828Z" fill="#F6851B" stroke="#F6851B" stroke-width="5.94955"/>
<path d="M47.8424 59.5109L41.0938 53.7177L56.0543 54.0313L47.8424 59.5109Z" fill="#CD6116" stroke="#CD6116" stroke-width="5.94955"/>
<path d="M55.5781 61.2578L56.0559 54.0313L57.8924 58.6001L55.5781 61.2578Z" fill="#E4751F" stroke="#E4751F" stroke-width="5.94955"/>
<path d="M22.5938 41.4895L23.8031 40.3547L24.5945 43.2065L22.5938 41.4895Z" fill="#763D16" stroke="#763D16" stroke-width="5.94955"/>
<path d="M55.5779 61.2578L47.8438 59.5109L52.7112 56.9876L55.5779 61.2578Z" fill="#233447" stroke="#233447" stroke-width="5.94955"/>
<path d="M37.5708 32.113L23.1328 28.873L29.0304 18.75L37.5708 32.113Z" fill="#763D16" stroke="#763D16" stroke-width="5.94955"/>
<path d="M61.2953 78.2191L62.1165 80.4587L48.8281 77.2486L61.2953 78.2191Z" fill="#C0AD9E" stroke="#C0AD9E" stroke-width="5.94955"/>
<path d="M48.5754 65.3189L47.8438 59.5109L55.5779 61.2578L48.5754 65.3189Z" fill="#F6851B" stroke="#F6851B" stroke-width="5.94955"/>
<path d="M41.0938 53.7177L47.8424 59.5109L48.574 65.3189L41.0938 53.7177Z" fill="#E4751F" stroke="#E4751F" stroke-width="5.94955"/>
<path d="M57.8969 58.6001L63.8095 58.2567L70.7971 69.1561L57.8969 58.6001ZM41.0998 53.7177L48.5801 65.3189L39.3828 65.7668L41.0998 53.7177Z" fill="#F6851B" stroke="#F6851B" stroke-width="5.94955"/>
<path d="M57.8924 58.6001L65.2383 69.7832L55.5781 61.2578L57.8924 58.6001Z" fill="#E4751F" stroke="#E4751F" stroke-width="5.94955"/>
<path d="M55.5781 61.2578L65.2383 69.7832L64.223 70.694L55.5781 61.2578Z" fill="#F6851B" stroke="#F6851B" stroke-width="5.94955"/>
<path d="M64.2255 70.694L48.5781 65.3189L55.5806 61.2578L64.2255 70.694ZM70.795 69.1561L65.2408 69.7832L57.8949 58.6001L70.795 69.1561Z" fill="#F6851B" stroke="#F6851B" stroke-width="5.94955"/>
<path d="M72.256 74.4117L69.8671 79.2045L62.1181 80.4587L72.256 74.4117ZM62.1181 80.4587L61.2969 78.2191L63.2827 76.0392L62.1181 80.4587Z" fill="#C0AD9E" stroke="#C0AD9E" stroke-width="5.94955"/>
<path d="M63.2818 76.0392L64.745 75.4569L62.1172 80.4587L63.2818 76.0392ZM62.1172 80.4587L64.745 75.4569L72.2551 74.4117L62.1172 80.4587Z" fill="#C0AD9E" stroke="#C0AD9E" stroke-width="5.94955"/>
<path d="M70.7945 69.1561L72.631 70.2759L67.0469 70.9478L70.7945 69.1561Z" fill="#161616" stroke="#161616" stroke-width="5.94955"/>
<path d="M67.0488 70.9478L65.2422 69.7832L70.7964 69.1561L67.0488 70.9478ZM66.4068 71.8287L73.2002 71.0075L72.2596 74.4117L66.4068 71.8287Z" fill="#161616" stroke="#161616" stroke-width="5.94955"/>
<path d="M72.2546 74.4117L64.7445 75.4569L66.4018 71.8287L72.2546 74.4117ZM64.7445 75.4569L63.2812 76.0392L64.2219 70.694L64.7445 75.4569ZM64.2219 70.694L65.2372 69.7832L67.0438 70.9478L64.2219 70.694ZM72.6279 70.2759L73.1953 71.0075L66.4018 71.8287L72.6279 70.2759Z" fill="#161616" stroke="#161616" stroke-width="5.94955"/>
<path d="M66.4064 71.8287L67.0485 70.9478L72.6326 70.2759L66.4064 71.8287ZM64.2266 70.694L66.4064 71.8287L64.7491 75.4569L64.2266 70.694Z" fill="#161616" stroke="#161616" stroke-width="5.94955"/>
<path d="M67.0485 70.9478L66.4064 71.8287L64.2266 70.694L67.0485 70.9478Z" fill="#161616" stroke="#161616" stroke-width="5.94955"/>
</svg>
