<svg width="41" height="40" fill="none" xmlns="http://www.w3.org/2000/svg"><path fill-rule="evenodd" clip-rule="evenodd" d="M18.95.14c-.14.1-.36.22-.5.25-.13.04-.37.2-.53.36-.16.16-.42.34-.58.4-.16.05-.44.23-.62.4-.18.16-.44.32-.58.36-.13.03-.42.2-.64.4a1.5 1.5 0 0 1-.56.32c-.09 0-.35.16-.6.34-.24.2-.53.38-.66.42-.13.04-.38.2-.58.36-.19.17-.49.34-.66.4-.18.04-.48.21-.67.37-.18.16-.46.32-.6.35-.15.04-.44.22-.65.4-.2.2-.44.34-.51.34-.08 0-.32.16-.54.35-.22.2-.43.35-.47.35-.04 0-.26.16-.5.36-.22.2-.54.42-.69.5a1.9 1.9 0 0 0-.48.38c-.1.13-.34.28-.51.34-.18.06-.39.2-.47.3-.07.11-.3.28-.5.37-.2.1-.49.3-.64.44-.15.15-.4.32-.55.38-.14.06-.39.23-.53.37-.15.14-.4.3-.56.36-.16.05-.45.22-.65.38s-.47.32-.6.35c-.14.03-.42.27-.64.52l-.4.47-.1 1.04c-.16 1.87-.1 2.28.38 2.46.17.07.4.25.53.42.13.16.29.3.36.3.06 0 .33.18.58.4.26.22.51.4.57.4.05 0 .24.15.43.34.18.2.4.35.47.35.08 0 .3.15.49.33.19.18.46.38.6.45.15.06.39.25.53.41.15.17.33.3.39.3s.25.15.41.34c.16.18.38.36.48.4.1.04.32.22.48.4.15.18.37.36.48.4.1.04.31.2.45.36.14.16.36.31.47.35.12.04.38.21.57.39.2.17.47.35.6.39.13.04.35.18.5.32.14.14.42.32.62.39.2.08.48.25.62.39.15.14.43.31.62.39.2.07.48.25.62.38.14.14.39.3.55.35.16.06.42.24.57.4.15.18.32.31.38.31s.27.16.47.35c.2.19.45.37.56.4.1.04.35.22.53.4.19.2.38.34.42.34.05 0 .28.18.5.4.24.22.47.4.52.4.05 0 .24.14.42.3.26.25.46.33.89.4.42.07.66.17.96.42.36.28.48.32.93.32.48 0 .55-.03.9-.37.2-.2.45-.37.55-.37.09 0 .3-.14.48-.3.17-.17.45-.35.62-.4.17-.07.46-.25.64-.4.17-.16.42-.32.55-.35.13-.04.36-.2.52-.37.17-.16.43-.33.6-.39.16-.05.38-.2.49-.33.1-.13.35-.31.55-.4.2-.08.44-.26.55-.39.1-.12.34-.29.51-.35.18-.07.46-.25.63-.4.18-.16.47-.33.65-.4.18-.05.43-.2.55-.33.12-.13.42-.3.65-.4.24-.08.56-.27.7-.4.16-.14.4-.28.56-.32.15-.03.43-.2.62-.36.19-.16.48-.34.65-.39.17-.04.47-.22.67-.38.2-.16.5-.32.64-.36.15-.03.44-.2.64-.38s.49-.35.63-.39c.14-.03.4-.2.6-.35.18-.16.47-.34.64-.4.17-.06.44-.22.6-.36.17-.14.34-.23.38-.2.16.13.28.95.52 3.85.06.7-.07 1.02-.47 1.16-.15.05-.43.22-.62.38-.18.17-.46.35-.6.41a2.2 2.2 0 0 0-.54.37c-.14.14-.37.3-.5.36-.14.06-.43.26-.65.45-.23.18-.46.33-.53.33s-.29.15-.48.33c-.19.18-.44.36-.56.4-.12.04-.38.22-.58.41-.2.2-.43.35-.52.35-.09 0-.3.14-.47.3-.16.17-.42.35-.57.4-.14.06-.4.23-.56.4-.16.16-.42.33-.57.38-.15.06-.39.21-.54.36-.15.14-.38.3-.52.36-.15.06-.39.23-.54.39a1.9 1.9 0 0 1-.58.37c-.16.06-.4.24-.55.4-.15.16-.4.32-.56.36-.17.04-.5.26-.76.52-.25.24-.57.49-.72.55-.25.1-.63.4-.83.65a.41.41 0 0 1-.28.12c-.1 0-.34.16-.53.35-.19.19-.44.37-.57.4-.12.04-.4.22-.62.4-.23.2-.49.35-.58.35-.1 0-.33.15-.53.34-.2.2-.5.39-.67.44-.18.04-.42.17-.54.28-.37.33-.47.33-.8.04-.16-.15-.42-.3-.58-.35-.15-.03-.43-.2-.6-.36a1.7 1.7 0 0 0-.59-.36 2.2 2.2 0 0 1-.65-.38c-.21-.18-.5-.35-.62-.4-.13-.03-.36-.2-.52-.35a1.71 1.71 0 0 0-.61-.38 1.76 1.76 0 0 1-.63-.39 1.61 1.61 0 0 0-.54-.36c-.14-.04-.5-.32-.82-.61a2.8 2.8 0 0 0-.68-.54c-.07 0-.26-.14-.42-.3a2.25 2.25 0 0 0-.57-.42 1.49 1.49 0 0 1-.46-.34 1.8 1.8 0 0 0-.53-.38 2.5 2.5 0 0 1-.6-.4 2.2 2.2 0 0 0-.53-.37 2.73 2.73 0 0 1-.61-.44c-.2-.19-.4-.33-.47-.33-.07 0-.3-.16-.5-.34-.21-.19-.47-.37-.58-.4-.11-.04-.35-.2-.52-.36a2.2 2.2 0 0 0-.63-.4c-.16-.05-.4-.21-.53-.35a1.6 1.6 0 0 0-.54-.36 2.35 2.35 0 0 1-.61-.38 2.74 2.74 0 0 0-.63-.4c-.18-.06-.4-.22-.51-.34-.11-.13-.34-.28-.52-.35a2.99 2.99 0 0 1-.66-.42c-.38-.32-.75-.44-1.05-.34-.3.1-.37.62-.37 2.46 0 1.5.01 1.68.2 2.32l.24.87c.07.25 1.07.96 1.5 1.07.21.05.56.2.77.36.22.15.58.3.8.34.27.05.63.24 1.07.57.37.27.79.53.94.57.15.04.46.22.7.4.24.17.55.34.68.38.14.03.42.19.63.35.21.17.53.34.7.39.17.05.46.2.64.34.18.15.48.31.67.38.19.06.5.24.7.4.2.15.49.32.65.38.17.05.47.23.67.39.2.16.49.32.63.35.13.03.39.18.56.32.17.14.47.32.67.4.2.07.48.25.63.39.15.14.4.3.57.36.17.06.45.24.63.4.18.15.47.3.65.34.18.04.47.2.65.36.17.16.5.34.74.4.3.07.5.19.61.36.3.44.8.81 1.07.81.4 0 1.61-.55 1.99-.9.18-.16.4-.3.47-.3.09 0 .28-.14.45-.33.16-.18.4-.36.54-.4.13-.04.34-.2.46-.36.12-.15.32-.31.44-.34.11-.04.35-.21.52-.4.16-.17.38-.35.48-.39.1-.04.32-.22.5-.41.17-.19.37-.34.42-.34.06 0 .26-.16.44-.35.18-.2.37-.35.43-.35.05 0 .28-.18.5-.4.22-.23.47-.4.6-.4.1 0 .31-.13.47-.3.14-.16.38-.35.53-.4.15-.07.4-.27.56-.45.16-.19.36-.34.44-.34.07 0 .26-.15.4-.34.14-.18.35-.36.47-.4.11-.04.38-.28.6-.54.22-.26.49-.51.6-.55.1-.04.33-.23.52-.41.18-.19.38-.34.45-.34s.26-.15.42-.33c.16-.19.38-.37.5-.41.1-.04.29-.2.4-.34a3 3 0 0 1 .53-.46c.5-.33 1.03-.77 1.34-1.12.17-.18.34-.32.38-.32.05 0 .25-.18.45-.4.2-.22.41-.4.46-.4.06 0 .22-.15.37-.34.15-.2.31-.35.36-.35.06 0 .27-.18.47-.4.2-.22.4-.4.45-.4.04 0 .23-.16.41-.37.18-.2.39-.42.46-.47.2-.14.36-.8.37-1.4a52.5 52.5 0 0 0 .32-4.67c.08-2.43.08-2.58-.05-2.67a4.12 4.12 0 0 1-.43-.43c-.36-.4-.68-.42-1.45-.07-.3.14-.74.32-.97.4a2.1 2.1 0 0 0-.68.38c-.15.14-.44.3-.65.36-.21.06-.57.24-.8.4-.22.16-.55.32-.74.36-.19.03-.53.2-.77.35a2.9 2.9 0 0 1-.84.38c-.22.05-.58.22-.79.38-.21.17-.53.35-.7.4-.17.04-.49.23-.7.4-.22.17-.46.31-.55.31-.1 0-.37.16-.61.34a2.6 2.6 0 0 1-.75.41c-.17.04-.5.22-.74.4-.24.2-.5.34-.59.34-.09 0-.34.16-.57.35-.23.18-.54.38-.68.43-.15.06-.43.23-.61.4-.23.2-.51.34-.85.41-.28.07-.71.22-.95.35-.24.14-.6.29-.8.35-.22.05-.53.21-.7.35-.16.13-.47.29-.68.35-.2.06-.54.23-.74.39-.2.16-.51.32-.68.36-.33.07-.67.27-.96.55-.29.29-.6.23-.94-.16-.17-.2-.34-.35-.39-.35-.05 0-.24-.15-.43-.34-.2-.18-.47-.38-.62-.45a1.49 1.49 0 0 1-.5-.4c-.13-.17-.3-.3-.37-.3s-.3-.18-.5-.4c-.2-.22-.43-.4-.5-.4-.09 0-.3-.15-.48-.34-.18-.19-.4-.37-.5-.41-.1-.04-.33-.22-.52-.4a1.4 1.4 0 0 0-.45-.34c-.06 0-.25-.15-.41-.35-.17-.19-.35-.34-.39-.34-.04 0-.25-.18-.46-.4-.21-.22-.42-.4-.47-.4-.05 0-.25-.15-.44-.34a1.84 1.84 0 0 0-.56-.41 1.66 1.66 0 0 1-.54-.4c-.18-.19-.37-.34-.43-.34s-.23-.13-.38-.3a2.43 2.43 0 0 0-.53-.44 1.87 1.87 0 0 1-.5-.44c-.12-.17-.27-.31-.33-.31-.05 0-.2-.13-.34-.3a2.74 2.74 0 0 0-.46-.44 6.65 6.65 0 0 1-.76-.8c-.3-.35-.61-.67-.69-.7-.18-.08-.63-.92-.6-1.13.02-.1.2-.23.44-.32.22-.1.52-.28.67-.42.14-.13.37-.27.5-.3.15-.05.4-.21.6-.38.18-.17.45-.35.6-.4.16-.05.44-.25.63-.44.2-.18.4-.33.48-.33.07 0 .3-.16.5-.34.2-.19.47-.37.58-.4.12-.04.37-.22.56-.41.2-.19.44-.34.53-.34.1 0 .33-.14.52-.32.19-.17.48-.35.66-.4.17-.05.49-.22.7-.38.2-.16.51-.33.69-.38.17-.05.43-.21.59-.36.15-.14.43-.32.63-.4.2-.07.47-.24.6-.38.15-.13.39-.27.54-.31.15-.04.47-.22.7-.4.24-.18.54-.36.67-.4.14-.03.36-.18.5-.31s.4-.31.58-.39c.17-.08.47-.28.64-.44.27-.25.4-.3.76-.3.38 0 .48.05.79.35.19.19.42.34.52.34.1 0 .32.14.5.31.19.17.48.37.65.44.17.08.43.26.57.4.15.14.4.3.57.36.17.06.45.23.63.39.18.15.42.31.55.35.12.04.37.2.54.36.17.15.45.32.62.38.17.06.45.22.63.36.17.14.48.31.68.39.2.08.5.27.67.44.17.16.38.3.47.3.1 0 .35.15.56.34.21.19.49.37.62.41.13.04.37.2.52.36.16.15.43.33.6.4.17.05.43.22.58.37.15.16.41.33.57.38a1 1 0 0 1 .45.34c.14.2.14.25.02.53-.14.36-.3.51-.6.6a5 5 0 0 0-.73.36c-.29.16-.73.34-.99.39-.26.05-.65.21-.87.35-.22.14-.65.31-.96.38-.3.07-.8.27-1.12.44-.31.17-.68.31-.83.31-.32 0-.64.1-1.36.43-.3.14-.88.3-1.3.35a9.06 9.06 0 0 0-2.2.55c-.29.08-1 .2-1.58.27-.97.1-1.1.09-1.36-.07-.16-.1-.31-.26-.34-.36a.84.84 0 0 0-.26-.35c-.11-.1-.44-.48-.73-.85a3.67 3.67 0 0 0-.6-.67c-.05 0-.18-.14-.3-.32s-.31-.4-.43-.5c-.2-.15-.47-.63-.47-.84 0-.16 1.07-.52 1.7-.58a6.15 6.15 0 0 0 1.96-.55c.26-.1.63-.19.83-.19.2 0 .5-.05.67-.1l.5-.17c.12-.03.24.02.37.18.18.2.2.3.2 1.18 0 .61.03 1 .09 1.08.11.14 1.07.16 1.36.02.2-.1.2-.11.2-1.12 0-.97.14-1.87.4-2.5l.22-.78c.16-.57.16-.57 0-1.02-.09-.25-.22-.48-.3-.51a1.9 1.9 0 0 1-.4-.38c-.2-.23-.4-.35-.71-.43l-.51-.13c-.23-.08-1.3.28-1.59.53-.18.15-.51.32-.74.39-.23.06-.58.23-.78.39-.2.15-.5.3-.67.35-.18.04-.54.22-.8.4-.27.19-.58.34-.7.34-.22 0-.6.2-.89.5-.1.1-.34.2-.55.24-.2.04-.54.2-.75.36-.2.16-.54.33-.74.4-.2.05-.54.23-.74.38-.2.16-.51.32-.68.36a1.9 1.9 0 0 0-1.05.77l-.17.27.21.52c.12.29.27.59.34.67.08.08.23.3.34.5l.55.81a38.47 38.47 0 0 1 1.18 1.67l.55.8c.15.22.38.55.52.72.14.18.48.68.77 1.11l.81 1.22c.44.63.6.88.75 1.15.14.26.76.53.97.43.07-.03.36-.1.64-.17.29-.05.73-.23.98-.39.26-.16.65-.33.88-.39.23-.05.62-.23.85-.39.24-.16.6-.31.8-.35.2-.03.56-.2.79-.35.23-.17.63-.34.9-.4.26-.05.7-.23.96-.4s.6-.3.74-.3.56-.18.93-.4c.36-.22.73-.4.81-.4.08 0 .35-.15.6-.33.27-.21.58-.36.83-.4.22-.03.63-.18.92-.35.28-.16.75-.34 1.03-.4.3-.05.72-.23.98-.4s.58-.3.73-.3c.17 0 .53-.17.9-.4.36-.23.74-.4.89-.4.14 0 .52-.16.83-.35.32-.19.78-.4 1.03-.45.28-.07.55-.21.7-.37.2-.21.35-.27.85-.32.66-.06.9-.21 1.04-.69.06-.19.04-.28-.1-.47-.1-.13-.25-.26-.34-.3-.09-.03-.3-.21-.49-.4a1.48 1.48 0 0 0-.4-.33 2.6 2.6 0 0 1-.54-.4c-.26-.21-.53-.4-.6-.4-.08 0-.26-.13-.41-.3-.15-.17-.4-.35-.56-.4a2.44 2.44 0 0 1-.62-.38 2.1 2.1 0 0 0-.56-.36 3.05 3.05 0 0 1-.67-.4 2.55 2.55 0 0 0-.73-.38c-.16-.04-.45-.2-.63-.35a1.84 1.84 0 0 0-.65-.36 2.5 2.5 0 0 1-.75-.39 2.79 2.79 0 0 0-.67-.4 2.14 2.14 0 0 1-.63-.4c-.2-.19-.45-.35-.53-.35-.09 0-.29-.13-.45-.3a2.32 2.32 0 0 0-.57-.41 2.71 2.71 0 0 1-.6-.44c-.2-.19-.4-.34-.47-.34-.06 0-.25-.13-.41-.3a2.35 2.35 0 0 0-.57-.41c-.14-.07-.4-.24-.57-.4a2.18 2.18 0 0 0-.62-.39 1.9 1.9 0 0 1-.6-.38 1.5 1.5 0 0 0-.6-.35 3.33 3.33 0 0 1-.81-.4c-.28-.2-.6-.35-.72-.35-.11 0-.45-.15-.75-.33a3.6 3.6 0 0 0-.9-.41c-.2-.04-.41-.13-.48-.2-.21-.24-.5-.26-.75-.06Z" fill="#E0E0E0" fill-opacity=".77"/></svg>