<svg width="41" height="40" viewBox="0 0 41 40" fill="none" xmlns="http://www.w3.org/2000/svg">
<path fill-rule="evenodd" clip-rule="evenodd" d="M18.9477 0.1354C18.814 0.239549 18.5943 0.355424 18.4594 0.392791C18.3244 0.430157 18.0833 0.591747 17.9236 0.751945C17.7639 0.912045 17.5017 1.08775 17.3409 1.1424C17.18 1.19696 16.9 1.37744 16.7184 1.5433C16.5369 1.70916 16.278 1.87274 16.1433 1.90683C16.0085 1.94081 15.7181 2.11821 15.498 2.30106C15.2779 2.48402 15.0268 2.63358 14.9401 2.63358C14.8532 2.63358 14.5855 2.78683 14.345 2.97405C14.1045 3.16128 13.8051 3.34702 13.6797 3.38668C13.5542 3.42643 13.2955 3.59179 13.1048 3.75428C12.914 3.91666 12.613 4.09058 12.4358 4.14086C12.2586 4.19105 11.9609 4.36218 11.7742 4.52108C11.5876 4.67999 11.3144 4.8386 11.167 4.87348C11.0197 4.90826 10.729 5.08943 10.5211 5.27587C10.3131 5.4624 10.0824 5.61495 10.0082 5.61495C9.93406 5.61495 9.69301 5.77147 9.47252 5.96277C9.25211 6.15408 9.03902 6.3106 8.999 6.3106C8.95899 6.3106 8.73786 6.4705 8.50768 6.66588C8.2775 6.86136 7.96374 7.08734 7.81053 7.16804C7.65723 7.24883 7.4432 7.42046 7.33488 7.54945C7.22657 7.67845 6.99292 7.83248 6.81568 7.89161C6.63843 7.95075 6.43023 8.08719 6.35303 8.19482C6.27591 8.30235 6.04872 8.46801 5.84824 8.56292C5.64768 8.65773 5.3596 8.85509 5.20796 9.00138C5.05632 9.14766 4.81133 9.3178 4.66355 9.37942C4.51576 9.44113 4.27432 9.60749 4.12701 9.7493C3.9797 9.89102 3.72841 10.0514 3.56857 10.1057C3.40874 10.1599 3.11593 10.3339 2.91789 10.4924C2.71993 10.6509 2.44958 10.8078 2.31723 10.8412C2.18481 10.8746 1.89681 11.1099 1.67726 11.364L1.27795 11.8261L1.18736 12.8696C1.02485 14.7412 1.0874 15.1545 1.56036 15.3333C1.72878 15.3969 1.96921 15.5841 2.09469 15.7494C2.2201 15.9146 2.37813 16.0498 2.44587 16.0499C2.51362 16.0501 2.77759 16.229 3.03259 16.4474C3.28758 16.666 3.54124 16.8447 3.59622 16.8447C3.65129 16.8447 3.84484 17.0013 4.02634 17.1926C4.20783 17.3839 4.42116 17.5404 4.5004 17.5404C4.57965 17.5404 4.79888 17.6891 4.98763 17.8708C5.17645 18.0527 5.44846 18.253 5.59214 18.3162C5.73591 18.3795 5.97538 18.5662 6.12427 18.7312C6.27323 18.8961 6.44693 19.0311 6.51027 19.0311C6.5736 19.0311 6.75849 19.1816 6.92108 19.3657C7.08367 19.5497 7.30038 19.7332 7.40271 19.7734C7.50496 19.8136 7.71765 19.9925 7.87536 20.171C8.03299 20.3493 8.25064 20.5297 8.35896 20.5717C8.46727 20.6136 8.67177 20.7755 8.81333 20.9312C8.95497 21.087 9.16687 21.2449 9.28433 21.2821C9.4017 21.3193 9.65804 21.4928 9.85395 21.6676C10.0499 21.8424 10.3165 22.0173 10.4465 22.0564C10.5765 22.0953 10.8016 22.2413 10.9469 22.3807C11.0921 22.5202 11.3723 22.6955 11.5694 22.7704C11.7667 22.8452 12.0464 23.0204 12.1911 23.1597C12.3358 23.2989 12.6156 23.4741 12.8127 23.549C13.01 23.6239 13.2866 23.7961 13.4277 23.9317C13.5686 24.0674 13.8165 24.2246 13.9785 24.281C14.1406 24.3374 14.3971 24.5209 14.5485 24.6887C14.7 24.8565 14.8732 24.9938 14.9334 24.9938C14.9935 24.9938 15.2041 25.1492 15.4014 25.3391C15.5986 25.5291 15.8493 25.7127 15.9584 25.7473C16.0676 25.7819 16.3077 25.9615 16.4921 26.1463C16.6764 26.3312 16.8652 26.483 16.9115 26.4835C16.9579 26.4841 17.1858 26.6634 17.4181 26.882C17.6504 27.1006 17.8802 27.2795 17.9289 27.2795C17.9775 27.2795 18.1664 27.418 18.3488 27.5871C18.6054 27.8252 18.8068 27.9147 19.2402 27.9834C19.6577 28.0495 19.9029 28.1544 20.2043 28.3961C20.5554 28.6777 20.6768 28.7202 21.1285 28.7203C21.6095 28.7205 21.6768 28.6926 22.0276 28.3478C22.2361 28.1428 22.4832 27.9752 22.5767 27.9752C22.6702 27.9752 22.8859 27.8415 23.0562 27.6782C23.2263 27.5149 23.5059 27.3318 23.6773 27.2714C23.8487 27.2108 24.1357 27.0341 24.3151 26.8783C24.4944 26.7227 24.7442 26.5637 24.8699 26.5251C24.9957 26.4866 25.2314 26.3239 25.3935 26.1638C25.5557 26.0036 25.8216 25.8272 25.9843 25.7717C26.1471 25.7163 26.3694 25.565 26.4783 25.4356C26.5872 25.3062 26.8349 25.1298 27.0286 25.0435C27.2223 24.9572 27.47 24.782 27.5789 24.6541C27.6879 24.5261 27.9188 24.365 28.0921 24.2961C28.2654 24.227 28.549 24.0457 28.7223 23.8931C28.8956 23.7405 29.1864 23.5668 29.3686 23.5071C29.5508 23.4474 29.7989 23.2939 29.9201 23.1661C30.0411 23.0382 30.3352 22.8625 30.5735 22.7755C30.8118 22.6885 31.1283 22.5041 31.2768 22.3657C31.4254 22.2274 31.6735 22.0869 31.8282 22.0536C31.983 22.0202 32.2635 21.8575 32.4514 21.692C32.6394 21.5265 32.9304 21.3522 33.0981 21.3047C33.2657 21.2572 33.5701 21.0844 33.7745 20.9209C33.9789 20.7574 34.2664 20.5951 34.4134 20.5603C34.5603 20.5255 34.8465 20.3536 35.0493 20.1782C35.2522 20.0028 35.5351 19.8302 35.6779 19.7945C35.8208 19.7589 36.0881 19.5992 36.2721 19.4395C36.4561 19.2798 36.7469 19.1012 36.9183 19.0426C37.0897 18.984 37.3635 18.8211 37.5268 18.6807C37.69 18.5401 37.8559 18.4504 37.8952 18.4811C38.0635 18.6123 38.1752 19.4254 38.4242 22.3318C38.4833 23.0211 38.3481 23.3479 37.946 23.488C37.7973 23.5398 37.5222 23.7138 37.3347 23.8747C37.1471 24.0356 36.8727 24.2192 36.725 24.2828C36.5772 24.3464 36.3378 24.5123 36.193 24.6516C36.0482 24.791 35.8189 24.9538 35.6834 25.0133C35.5479 25.0729 35.2564 25.2718 35.0355 25.4552C34.8147 25.6387 34.5763 25.7888 34.5057 25.7888C34.4351 25.7888 34.2216 25.9382 34.0312 26.1207C33.8408 26.3032 33.5868 26.4832 33.4666 26.5207C33.3464 26.5582 33.0867 26.7443 32.8894 26.9342C32.6921 27.1241 32.4589 27.2795 32.3709 27.2795C32.283 27.2795 32.0733 27.4172 31.9049 27.5855C31.7365 27.7538 31.4785 27.9332 31.3319 27.9844C31.1851 28.0355 30.9325 28.2102 30.7704 28.3727C30.6084 28.5352 30.3532 28.7108 30.2034 28.7629C30.0536 28.8151 29.8095 28.9746 29.6612 29.1174C29.5129 29.2602 29.2763 29.4249 29.1356 29.4834C28.9949 29.5419 28.7532 29.7141 28.5985 29.8661C28.4437 30.018 28.1854 30.1882 28.0243 30.2444C27.8633 30.3004 27.613 30.4776 27.4681 30.6382C27.3232 30.7987 27.0701 30.9619 26.9057 31.0009C26.7368 31.0408 26.4076 31.2648 26.1493 31.5155C25.8977 31.7598 25.5761 32.0091 25.4346 32.0696C25.1791 32.1788 24.7998 32.4733 24.6007 32.7172C24.5434 32.7874 24.4155 32.8447 24.3163 32.8447C24.2172 32.8447 23.9805 33.0002 23.7903 33.1901C23.6 33.38 23.3451 33.5629 23.2238 33.5966C23.1025 33.6302 22.8197 33.8102 22.5954 33.9965C22.3711 34.183 22.1121 34.3354 22.0199 34.3354C21.9276 34.3354 21.6908 34.4907 21.4937 34.6807C21.2966 34.8705 20.993 35.0662 20.819 35.1155C20.645 35.1648 20.4024 35.2929 20.2798 35.4001C19.906 35.7271 19.8104 35.7317 19.489 35.4379C19.3221 35.2855 19.058 35.1305 18.902 35.0936C18.746 35.0567 18.4711 34.8919 18.2911 34.7275C18.1111 34.563 17.8499 34.4016 17.7106 34.3689C17.5714 34.3362 17.2802 34.1654 17.0636 33.9892C16.847 33.813 16.5655 33.637 16.438 33.5979C16.3107 33.559 16.0769 33.3977 15.9187 33.2396C15.7605 33.0814 15.485 32.9107 15.3066 32.8601C15.1282 32.8097 14.8479 32.6345 14.6837 32.4712C14.5196 32.3079 14.2735 32.1436 14.1369 32.1061C14.0003 32.0688 13.634 31.7948 13.3228 31.4974C13.0116 31.1999 12.703 30.9565 12.6371 30.9565C12.5712 30.9565 12.3818 30.8212 12.2163 30.6557C12.0507 30.4902 11.7974 30.3053 11.6535 30.2447C11.5096 30.1841 11.3027 30.0305 11.1938 29.9034C11.0848 29.7763 10.8449 29.6053 10.6608 29.5233C10.4765 29.4413 10.208 29.2608 10.064 29.1223C9.92004 28.9838 9.68135 28.818 9.53357 28.7539C9.38579 28.6898 9.10913 28.4884 8.91873 28.3063C8.72841 28.1241 8.51556 27.9752 8.44585 27.9752C8.37613 27.9752 8.1495 27.8231 7.94224 27.6372C7.73506 27.4513 7.47628 27.271 7.36718 27.2365C7.25816 27.2019 7.02356 27.0408 6.84585 26.8785C6.66821 26.7161 6.38817 26.5376 6.22345 26.4816C6.05881 26.4257 5.81665 26.2659 5.68534 26.1264C5.55402 25.987 5.31383 25.8268 5.15156 25.7703C4.98928 25.7137 4.71404 25.5447 4.53987 25.3947C4.36578 25.2446 4.08148 25.0654 3.90817 24.9962C3.73487 24.927 3.50445 24.7694 3.39614 24.646C3.28782 24.5226 3.0574 24.3654 2.8841 24.2969C2.71079 24.2284 2.41168 24.04 2.21932 23.8781C1.84474 23.563 1.47174 23.4424 1.1683 23.5385C0.876203 23.6309 0.796483 24.1588 0.796876 25.9991C0.797192 27.497 0.813341 27.6831 0.998541 28.323C1.10922 28.7056 1.21911 29.0946 1.24259 29.1873C1.30608 29.4373 2.30778 30.1512 2.74262 30.2562C2.95043 30.3064 3.29767 30.4692 3.5143 30.618C3.73093 30.7669 4.09054 30.9219 4.31347 30.9623C4.58493 31.0116 4.93847 31.1996 5.38363 31.5313C5.7493 31.8037 6.16949 32.0591 6.3175 32.0989C6.46544 32.1385 6.78149 32.3166 7.01978 32.4946C7.25808 32.6725 7.5653 32.8446 7.7026 32.877C7.83983 32.9093 8.12405 33.0693 8.33414 33.2324C8.54431 33.3956 8.85808 33.5692 9.03146 33.6184C9.20484 33.6675 9.49166 33.8231 9.66883 33.9642C9.84599 34.1054 10.1467 34.2727 10.3369 34.3362C10.5272 34.3996 10.8423 34.5779 11.0373 34.7323C11.2323 34.8868 11.5271 35.0591 11.6923 35.1152C11.8576 35.1714 12.1589 35.3488 12.3619 35.5094C12.5649 35.67 12.8453 35.828 12.9852 35.8605C13.1249 35.893 13.3785 36.0358 13.5487 36.1778C13.7187 36.3198 14.0211 36.498 14.2206 36.5737C14.4201 36.6494 14.7043 36.8279 14.8522 36.9702C15.0002 37.1127 15.2563 37.2761 15.4213 37.3337C15.5863 37.3911 15.8687 37.566 16.0487 37.7223C16.2288 37.8786 16.5232 38.0362 16.7029 38.0723C16.8825 38.1086 17.172 38.2684 17.3461 38.4275C17.5209 38.5872 17.8559 38.7658 18.0944 38.8262C18.392 38.9016 18.5807 39.016 18.7019 39.1945C18.9944 39.6252 19.4931 40 19.7739 40C20.1628 40 21.3846 39.4516 21.7599 39.1086C21.9412 38.943 22.1549 38.8075 22.2349 38.8075C22.315 38.8075 22.5135 38.6565 22.6761 38.4721C22.8387 38.2876 23.0819 38.1065 23.2166 38.0698C23.3514 38.0329 23.5602 37.873 23.6807 37.7143C23.8012 37.5556 23.997 37.3989 24.1158 37.366C24.2346 37.3331 24.4689 37.1584 24.6365 36.9778C24.804 36.7972 25.02 36.618 25.1165 36.5796C25.2131 36.5412 25.438 36.356 25.6163 36.168C25.7948 35.9799 25.9871 35.8261 26.0439 35.8261C26.1007 35.8261 26.2957 35.6696 26.4772 35.4783C26.6587 35.287 26.8524 35.1304 26.9076 35.1304C26.9628 35.1304 27.1861 34.9516 27.4038 34.7329C27.6341 34.5016 27.8843 34.3354 28.0021 34.3354C28.1152 34.3354 28.3245 34.2028 28.4756 34.0355C28.6244 33.8705 28.865 33.6847 29.0101 33.6225C29.1551 33.5603 29.4068 33.3598 29.5694 33.1771C29.7319 32.9943 29.9288 32.8447 30.0069 32.8447C30.0849 32.8447 30.2663 32.6917 30.41 32.5047C30.5536 32.3176 30.764 32.1353 30.8773 32.0994C30.9906 32.0635 31.2629 31.8198 31.4825 31.558C31.7019 31.296 31.9684 31.0482 32.0744 31.007C32.1804 30.9659 32.4149 30.7812 32.5955 30.5966C32.7761 30.4119 32.9798 30.2609 33.0482 30.2609C33.1167 30.2609 33.3056 30.1103 33.4682 29.9263C33.6308 29.7422 33.8525 29.5583 33.9608 29.5175C34.0691 29.4769 34.2568 29.3265 34.3779 29.1835C34.4989 29.0404 34.7331 28.833 34.8985 28.7226C35.3937 28.3917 35.9299 27.9454 36.2441 27.6025C36.4069 27.4249 36.578 27.2795 36.6242 27.2795C36.6705 27.2795 36.8722 27.1006 37.0724 26.882C37.2727 26.6634 37.4806 26.4845 37.5344 26.4845C37.5882 26.4845 37.7526 26.328 37.8996 26.1367C38.0466 25.9454 38.2109 25.7888 38.2647 25.7888C38.3186 25.7888 38.5265 25.61 38.7267 25.3913C38.927 25.1727 39.1289 24.9938 39.1756 24.9938C39.2224 24.9938 39.4086 24.8262 39.5896 24.6211C39.7705 24.4162 39.9799 24.2037 40.0547 24.1491C40.241 24.013 40.4124 23.3571 40.4184 22.7578C40.4211 22.4845 40.4732 21.9031 40.5343 21.4659C40.5953 21.0286 40.6867 19.5087 40.7374 18.0883C40.8245 15.6526 40.8217 15.5001 40.6903 15.405C40.6137 15.3497 40.4198 15.1591 40.2595 14.9814C39.8956 14.5781 39.5765 14.5635 38.8055 14.9147C38.5022 15.0529 38.066 15.2272 37.8362 15.302C37.6064 15.3768 37.2999 15.552 37.1551 15.6915C37.0101 15.8309 36.7196 15.9933 36.5093 16.0524C36.2992 16.1114 35.9428 16.2906 35.7175 16.4506C35.4923 16.6105 35.1555 16.77 34.9691 16.805C34.7828 16.84 34.4354 17.0006 34.1971 17.1618C33.9589 17.3229 33.5826 17.4931 33.361 17.5399C33.1395 17.5867 32.7844 17.7599 32.5719 17.9248C32.3595 18.0898 32.0445 18.2652 31.8719 18.3147C31.6993 18.3642 31.3828 18.5456 31.1686 18.7179C30.9543 18.8902 30.7062 19.0312 30.6171 19.0314C30.5281 19.0315 30.2528 19.1857 30.0053 19.3739C29.7577 19.5623 29.4209 19.7469 29.2569 19.7842C29.0928 19.8214 28.7629 20.0027 28.5238 20.1869C28.2846 20.3711 28.018 20.5218 27.9311 20.5218C27.8444 20.5218 27.5871 20.6765 27.3595 20.8657C27.1318 21.0548 26.8239 21.2519 26.6752 21.3037C26.5266 21.3555 26.2528 21.5335 26.0669 21.6995C25.8428 21.8994 25.5562 22.039 25.2168 22.1135C24.9352 22.1753 24.5098 22.3334 24.2715 22.4649C24.0332 22.5964 23.6684 22.7502 23.4608 22.8068C23.2533 22.8633 22.9445 23.0201 22.7748 23.1553C22.605 23.2905 22.297 23.4489 22.0903 23.5073C21.8836 23.5657 21.5483 23.7425 21.3453 23.9001C21.1423 24.0577 20.8403 24.2177 20.6742 24.2557C20.3388 24.3323 19.9961 24.5294 19.7116 24.8091C19.4203 25.0955 19.1159 25.0429 18.7676 24.646C18.5998 24.4547 18.4251 24.2982 18.3795 24.2982C18.334 24.2982 18.1402 24.1475 17.949 23.9634C17.7578 23.7793 17.4774 23.5771 17.3258 23.5139C17.1742 23.4508 16.9491 23.266 16.8255 23.1033C16.7019 22.9406 16.5387 22.8075 16.4629 22.8075C16.3869 22.8075 16.161 22.6286 15.9607 22.41C15.7605 22.1913 15.5313 22.0124 15.4514 22.0124C15.3714 22.0124 15.1602 21.8586 14.9817 21.6706C14.8034 21.4826 14.5785 21.2972 14.4819 21.2586C14.3854 21.22 14.1507 21.0384 13.9603 20.8551C13.77 20.6717 13.5662 20.5218 13.5076 20.5218C13.449 20.5218 13.2636 20.3652 13.0959 20.1739C12.928 19.9826 12.7545 19.8261 12.7103 19.8261C12.6661 19.8261 12.4584 19.6472 12.2486 19.4286C12.0389 19.21 11.8273 19.0311 11.7785 19.0311C11.7297 19.0311 11.5341 18.8757 11.3438 18.6857C11.1536 18.4958 10.9004 18.3134 10.7812 18.2803C10.662 18.2473 10.4194 18.0673 10.2421 17.8803C10.0647 17.6933 9.87096 17.5404 9.81157 17.5404C9.75217 17.5404 9.58233 17.4061 9.43416 17.242C9.28598 17.0778 9.04548 16.8802 8.89967 16.8029C8.75393 16.7255 8.53053 16.5245 8.40331 16.356C8.27609 16.1876 8.12665 16.0497 8.07119 16.0497C8.01581 16.0497 7.86236 15.9164 7.7301 15.7533C7.59791 15.5902 7.39278 15.3905 7.27446 15.3095C7.15606 15.2286 6.81103 14.8702 6.50775 14.5131C6.20446 14.1562 5.89543 13.8389 5.82099 13.8083C5.64177 13.7346 5.19347 12.8889 5.22466 12.6834C5.23923 12.5875 5.41569 12.4544 5.65871 12.3559C5.88401 12.2647 6.18493 12.0795 6.32743 11.9444C6.46993 11.8093 6.69964 11.6686 6.83797 11.6316C6.9763 11.5947 7.23917 11.4276 7.42217 11.2604C7.60516 11.0931 7.87985 10.9127 8.03251 10.8596C8.18526 10.8064 8.46806 10.6108 8.66098 10.4249C8.85398 10.239 9.06888 10.087 9.13859 10.087C9.20831 10.087 9.43494 9.93494 9.6422 9.749C9.84938 9.56317 10.1108 9.382 10.223 9.34642C10.3353 9.31094 10.5872 9.12759 10.7829 8.93907C10.9786 8.75055 11.2169 8.59631 11.3125 8.59631C11.4081 8.59631 11.6406 8.45539 11.829 8.28317C12.0175 8.11094 12.3146 7.92948 12.4894 7.87989C12.664 7.8304 12.9764 7.65837 13.1834 7.49768C13.3904 7.33698 13.702 7.16526 13.8759 7.11596C14.0497 7.06667 14.315 6.90796 14.4653 6.76327C14.6157 6.61857 14.9 6.43899 15.0972 6.36406C15.2945 6.28923 15.5698 6.1183 15.7091 5.98424C15.8483 5.85028 16.086 5.70866 16.2372 5.6697C16.3884 5.63065 16.7071 5.45197 16.9454 5.27269C17.1837 5.09331 17.485 4.91463 17.615 4.87547C17.745 4.83641 17.966 4.6944 18.1061 4.55984C18.2462 4.42538 18.5071 4.25018 18.6859 4.17067C18.8647 4.09107 19.1558 3.89162 19.3329 3.72725C19.6 3.4795 19.7293 3.42881 20.0923 3.42961C20.4728 3.4304 20.5747 3.47572 20.8756 3.77743C21.0658 3.96814 21.2998 4.12427 21.3955 4.12427C21.4912 4.12427 21.7203 4.262 21.9045 4.43045C22.0887 4.5988 22.3782 4.79825 22.5477 4.87378C22.7174 4.94921 22.9768 5.1272 23.1244 5.26911C23.2719 5.41112 23.5277 5.5743 23.6927 5.63184C23.8577 5.68928 24.1387 5.863 24.317 6.01773C24.4953 6.17256 24.7438 6.33167 24.8693 6.37142C24.9947 6.41107 25.2361 6.57037 25.4055 6.72521C25.5751 6.88014 25.855 7.05485 26.0278 7.11358C26.2005 7.17221 26.483 7.33261 26.6556 7.47005C26.8281 7.60749 27.1372 7.7828 27.3423 7.85962C27.5474 7.93653 27.8492 8.1337 28.013 8.29788C28.1767 8.46195 28.3882 8.59631 28.4829 8.59631C28.5777 8.59631 28.8278 8.75124 29.0389 8.94046C29.25 9.12978 29.5297 9.31442 29.6607 9.35069C29.7916 9.38697 30.027 9.54667 30.1837 9.70558C30.3406 9.86458 30.6076 10.0429 30.7772 10.1019C30.9467 10.1609 31.2096 10.3332 31.3612 10.4845C31.5129 10.6359 31.771 10.8064 31.9348 10.8634C32.0987 10.9205 32.2991 11.0704 32.3801 11.1968C32.5166 11.4093 32.5185 11.4484 32.4049 11.7256C32.2565 12.088 32.1027 12.2433 31.8085 12.3278C31.6863 12.3629 31.3529 12.5252 31.0676 12.6883C30.7823 12.8515 30.3378 13.0279 30.0797 13.0804C29.8217 13.1328 29.4302 13.291 29.2097 13.4319C28.9893 13.5728 28.5591 13.7448 28.2536 13.8142C27.9482 13.8836 27.4431 14.0795 27.1314 14.2497C26.8196 14.4198 26.4474 14.5601 26.3043 14.5614C25.984 14.5643 25.6556 14.6684 24.9411 14.9931C24.634 15.1328 24.058 15.2866 23.6413 15.3404C23.2297 15.3934 22.6802 15.5028 22.4203 15.5834C22.1603 15.6641 21.7172 15.8009 21.4356 15.8873C21.154 15.9738 20.4441 16.0944 19.8579 16.1555C18.8897 16.2562 18.7656 16.2503 18.4999 16.0904C18.339 15.9937 18.1867 15.8319 18.1612 15.731C18.1359 15.6301 18.0205 15.4704 17.9049 15.3762C17.7893 15.2821 17.4584 14.9031 17.1695 14.5342C16.8808 14.1653 16.6089 13.8634 16.5656 13.8634C16.5222 13.8634 16.3899 13.7181 16.2714 13.5405C16.153 13.3629 15.9566 13.1413 15.835 13.048C15.6346 12.8942 15.3699 12.4108 15.3699 12.1984C15.3699 12.0419 16.437 11.6782 17.0684 11.6197C17.681 11.5629 18.0873 11.449 19.0286 11.0703C19.2861 10.9668 19.6583 10.8809 19.8557 10.8796C20.0531 10.8783 20.3564 10.8305 20.5297 10.7734C20.703 10.7162 20.9263 10.6445 21.0261 10.6141C21.1499 10.5763 21.2684 10.6313 21.4002 10.7874C21.5791 10.9993 21.5932 11.086 21.5932 11.9726C21.5932 12.5842 21.6273 12.9723 21.6877 13.0485C21.8021 13.1928 22.7583 13.2085 23.0454 13.0708C23.244 12.9755 23.2474 12.957 23.2484 11.9528C23.2494 10.9814 23.3899 10.0848 23.6421 9.44103C23.6849 9.33171 23.7889 8.98528 23.8732 8.67114C24.0258 8.1027 24.0258 8.09793 23.8675 7.64665C23.7801 7.39721 23.6491 7.16714 23.5765 7.13514C23.5038 7.10324 23.3203 6.93321 23.1687 6.75721C22.975 6.53251 22.7639 6.4061 22.4597 6.33256C22.2214 6.27492 21.991 6.21559 21.9476 6.20059C21.722 6.12257 20.6574 6.47587 20.3628 6.7266C20.1843 6.87855 19.8499 7.05375 19.6196 7.11606C19.3893 7.17837 19.0391 7.35437 18.8412 7.50712C18.6434 7.65996 18.3397 7.81738 18.1664 7.85683C17.9931 7.89639 17.6333 8.07895 17.3668 8.2625C17.1003 8.44615 16.7884 8.59631 16.6736 8.59631C16.4532 8.59631 16.0785 8.80679 15.7844 9.09579C15.6875 9.19109 15.4393 9.30041 15.233 9.33867C15.0267 9.37703 14.6891 9.53862 14.4827 9.69782C14.2764 9.85703 13.9403 10.0346 13.7359 10.0924C13.5316 10.1502 13.1982 10.3264 12.9952 10.484C12.7922 10.6415 12.4902 10.8014 12.324 10.8392C11.9439 10.9255 11.4903 11.2574 11.2706 11.6096L11.1016 11.8807L11.3118 12.4C11.4274 12.6856 11.5813 12.9865 11.6538 13.0687C11.7263 13.1508 11.8791 13.3744 11.9932 13.5655C12.1074 13.7567 12.3555 14.1251 12.5447 14.3843C12.7338 14.6435 13.0126 15.0383 13.1642 15.2617C13.3159 15.4851 13.564 15.8397 13.7157 16.0497C13.8673 16.2597 14.1154 16.6177 14.2671 16.8451C14.4187 17.0727 14.6546 17.4005 14.7912 17.5735C14.9279 17.7466 15.2738 18.246 15.56 18.6833C15.8462 19.1205 16.213 19.67 16.375 19.9042C16.8104 20.5334 16.9698 20.7789 17.1176 21.0466C17.2606 21.3062 17.8784 21.5809 18.0892 21.4789C18.1581 21.4455 18.4478 21.3713 18.7331 21.3137C19.0185 21.2562 19.4597 21.0791 19.7137 20.9202C19.9676 20.7613 20.3636 20.5873 20.5939 20.5336C20.8241 20.4799 21.2051 20.3047 21.4406 20.1442C21.6762 19.9838 22.0363 19.8252 22.2411 19.7918C22.4458 19.7585 22.8003 19.5985 23.0288 19.4362C23.2574 19.2741 23.6617 19.0976 23.9273 19.044C24.1929 18.9904 24.6261 18.8091 24.89 18.641C25.1539 18.473 25.4861 18.3349 25.6281 18.3343C25.7702 18.3337 26.1877 18.1554 26.556 17.9379C26.9242 17.7205 27.2918 17.5421 27.3728 17.5415C27.4538 17.5409 27.7196 17.3897 27.9636 17.2056C28.241 16.9962 28.5547 16.85 28.8011 16.8154C29.0177 16.7849 29.4298 16.6269 29.7169 16.4642C30.004 16.3015 30.4705 16.123 30.7536 16.0674C31.0412 16.0109 31.4714 15.8313 31.7284 15.6604C31.9868 15.4885 32.3092 15.3542 32.4641 15.3539C32.6286 15.3535 32.9907 15.1931 33.3617 14.9562C33.7176 14.7289 34.0962 14.559 34.2467 14.559C34.3913 14.559 34.7672 14.4035 35.082 14.2135C35.3969 14.0235 35.8587 13.819 36.1082 13.759C36.3866 13.6923 36.6565 13.5497 36.8066 13.3904C37.0093 13.1754 37.1568 13.1209 37.6648 13.0738C38.3199 13.0131 38.5556 12.8556 38.6989 12.3825C38.7562 12.1935 38.7354 12.0958 38.5986 11.9122C38.5038 11.7848 38.3519 11.6509 38.2613 11.6148C38.1706 11.5788 37.9511 11.3991 37.7733 11.2156C37.5955 11.0322 37.4142 10.882 37.3704 10.882C37.3265 10.882 37.082 10.7032 36.827 10.4847C36.5721 10.2663 36.3026 10.0874 36.2284 10.0872C36.154 10.0871 35.9693 9.94965 35.8178 9.7819C35.6663 9.61405 35.4157 9.43268 35.261 9.37882C35.1063 9.32485 34.8288 9.15243 34.6445 8.99542C34.4602 8.8385 34.2043 8.6786 34.076 8.64014C33.9477 8.60168 33.6477 8.42518 33.4094 8.24779C33.1711 8.0705 32.8424 7.89519 32.6788 7.85842C32.5154 7.82155 32.2314 7.66344 32.0478 7.50712C31.8641 7.3508 31.5725 7.19229 31.3997 7.15472C31.2269 7.11726 30.8906 6.93957 30.6523 6.75989C30.414 6.58021 30.1107 6.40391 29.9784 6.36824C29.846 6.33256 29.5651 6.14841 29.354 5.9591C29.1429 5.76988 28.9018 5.61495 28.8182 5.61495C28.7346 5.61495 28.5307 5.47959 28.3651 5.31413C28.1995 5.14866 27.9463 4.96233 27.8024 4.89992C27.6584 4.83751 27.3849 4.63746 27.1945 4.4554C27.0042 4.27323 26.7966 4.12427 26.7332 4.12427C26.6699 4.12427 26.4826 3.98891 26.317 3.82345C26.1514 3.65798 25.8981 3.47105 25.7542 3.40794C25.6103 3.34494 25.3541 3.16715 25.185 3.01281C25.0158 2.85858 24.7328 2.68327 24.556 2.62315C24.3792 2.56312 24.1099 2.3907 23.9577 2.23994C23.8053 2.08929 23.5401 1.93346 23.3681 1.89371C23.1962 1.85396 22.8276 1.66872 22.5488 1.48218C22.2701 1.29555 21.9478 1.1429 21.8325 1.1429C21.7174 1.1429 21.3771 0.99125 21.0764 0.805809C20.7757 0.620369 20.3702 0.436616 20.1752 0.397461C19.9802 0.358306 19.7675 0.267474 19.7026 0.195722C19.4874 -0.0418922 19.204 -0.06455 18.9477 0.1354Z" fill="#E0E0E0" fill-opacity="0.77"/>
</svg>
