<svg width="25" height="24" fill="none" xmlns="http://www.w3.org/2000/svg"><path fill-rule="evenodd" clip-rule="evenodd" d="M12.8 2.2A4.8 4.8 0 0 0 8 7c0 2.64 2.13 4.79 4.77 4.8h.03a4.8 4.8 0 0 0 0-9.6Z" fill="#ECECEC"/><path d="M7.46 14.6a10.4 10.4 0 0 1 5.34-1.4c2.02 0 3.92.53 5.33 1.4 1.39.83 2.47 2.1 2.47 3.61 0 .77-.29 1.42-.79 1.93-.48.5-1.13.82-1.84 1.06-1.4.46-3.25.6-5.17.6-1.9 0-3.76-.14-5.16-.6a4.54 4.54 0 0 1-1.84-1.04c-.5-.5-.8-1.16-.8-1.93 0-1.5 1.07-2.78 2.46-3.63Z" fill="#ECECEC"/></svg>