<svg width="101" height="100" fill="none" xmlns="http://www.w3.org/2000/svg"><path d="M65.75 47.27a3.33 3.33 0 0 1 0-4.74 3.33 3.33 0 0 1 4.74 0 3.33 3.33 0 0 1 0 4.74 3.33 3.33 0 0 1-4.74 0Zm-11.2 11.25a2.56 2.56 0 0 1 0-3.55 2.56 2.56 0 0 1 3.55 0c.95.96.95 2.55 0 3.55-1 .96-2.6.96-3.56 0Zm17.71-5.92a2.56 2.56 0 0 1 0-3.55 2.56 2.56 0 0 1 3.56 0c.95.96.95 2.55 0 3.55-1 1-2.6 1-3.56 0Zm-5.92 5.92a2.56 2.56 0 0 1 0-3.55 2.56 2.56 0 0 1 3.55 0c.96.96.96 2.55 0 3.55-1 .96-2.55.96-3.55 0Zm12.44-.59a1.7 1.7 0 0 1 0-2.37 1.7 1.7 0 0 1 2.37 0 1.7 1.7 0 0 1 0 2.37 1.7 1.7 0 0 1-2.37 0Zm-5.92 5.92a1.7 1.7 0 0 1 0-2.36 1.7 1.7 0 0 1 2.36 0 1.7 1.7 0 0 1 0 2.36 1.7 1.7 0 0 1-2.36 0ZM59.83 53.2a3.33 3.33 0 0 1 0-4.73 3.33 3.33 0 0 1 4.74 0 3.33 3.33 0 0 1 0 4.73 3.33 3.33 0 0 1-4.74 0Zm0-11.8a3.33 3.33 0 0 1 0-4.73 3.33 3.33 0 0 1 4.74 0 3.33 3.33 0 0 1 0 4.74 3.41 3.41 0 0 1-4.74 0Zm-5.88 5.88a3.33 3.33 0 0 1 0-4.74 3.33 3.33 0 0 1 4.74 0 3.33 3.33 0 0 1 0 4.74 3.33 3.33 0 0 1-4.74 0Zm-11.89 0a3.33 3.33 0 0 1 0-4.74 3.33 3.33 0 0 1 4.74 0 3.33 3.33 0 0 1 0 4.74 3.33 3.33 0 0 1-4.74 0ZM30.81 58.52a2.56 2.56 0 0 1 0-3.55 2.56 2.56 0 0 1 3.55 0c.96.96.96 2.55 0 3.55-.95.96-2.55.96-3.55 0Zm17.77-5.92a2.56 2.56 0 0 1 0-3.55 2.56 2.56 0 0 1 3.55 0c.96.96.96 2.55 0 3.55-1 1-2.6 1-3.55 0Zm-5.93 5.92a2.56 2.56 0 0 1 0-3.55 2.56 2.56 0 0 1 3.56 0c.95.96.95 2.55 0 3.55-1 .96-2.6.96-3.56 0Zm-23.05-.59a1.7 1.7 0 0 1 0-2.37 1.7 1.7 0 0 1 2.37 0 1.7 1.7 0 0 1 0 2.37 1.7 1.7 0 0 1-2.37 0Zm5.93 5.92a1.7 1.7 0 0 1 0-2.36 1.7 1.7 0 0 1 2.36 0 1.7 1.7 0 0 1 0 2.36 1.7 1.7 0 0 1-2.36 0Zm23.64 0a1.7 1.7 0 0 1 0-2.36 1.7 1.7 0 0 1 2.37 0 1.7 1.7 0 0 1 0 2.36 1.7 1.7 0 0 1-2.37 0ZM24.93 52.6a2.56 2.56 0 0 1 0-3.55 2.56 2.56 0 0 1 3.56 0c.95.96.95 2.55 0 3.55-1 1-2.6 1-3.56 0Zm11.2.6a3.33 3.33 0 0 1 0-4.74 3.33 3.33 0 0 1 4.75 0 3.33 3.33 0 0 1 0 4.73 3.33 3.33 0 0 1-4.74 0Zm0-11.8a3.33 3.33 0 0 1 0-4.74 3.33 3.33 0 0 1 4.75 0 3.33 3.33 0 0 1 0 4.74 3.41 3.41 0 0 1-4.74 0Zm-5.91 5.87a3.33 3.33 0 0 1 0-4.74 3.33 3.33 0 0 1 4.73 0 3.33 3.33 0 0 1 0 4.74 3.33 3.33 0 0 1-4.73 0Z" fill="#fff"/></svg>