<svg width="100" height="94" viewBox="0 0 100 94" fill="none" xmlns="http://www.w3.org/2000/svg">
<path d="M81.6833 15.7239L53.1719 36.8203L58.4738 24.3876L81.6833 15.7239Z" fill="#E17726"/>
<path d="M18.3875 15.7488L41.535 24.3891L46.5694 36.9849L18.3875 15.7488ZM70.2129 60.5902L82.8146 60.8301L78.4104 75.7914L63.0335 71.5578L70.2129 60.5902ZM29.7945 60.5902L36.9471 71.5578L21.5962 75.7917L17.2188 60.8301L29.7945 60.5902Z" fill="#E27625"/>
<path d="M45.8873 33.7764L46.4023 50.4095L30.9922 49.7085L35.3756 43.0955L35.4311 43.0319L45.8873 33.7764ZM53.9655 33.5908L64.5814 43.0324L64.6364 43.0958L69.0198 49.7087L53.613 50.4095L53.9655 33.5908ZM37.4009 60.6384L45.8152 67.1945L36.0408 71.9135L37.4009 60.6384ZM62.6131 60.6373L63.9449 71.9138L54.1978 67.194L62.6131 60.6373Z" fill="#E27625"/>
<path d="M54.4111 66.5767L64.302 71.366L55.1015 75.7385L55.197 72.8486L54.4111 66.5767ZM45.5947 66.5787L44.8397 72.8013L44.9017 75.7351L35.6797 71.366L45.5947 66.5787Z" fill="#D5BFB2"/>
<path d="M42.7385 52.5806L45.3232 58.0126L36.5234 55.4346L42.7385 52.5806ZM57.2698 52.5811L63.5142 55.4346L54.6856 58.0118L57.2698 52.5811Z" fill="#233447"/>
<path d="M38.0776 60.5828L36.6552 72.2732L29.0312 60.8385L38.0776 60.5828ZM61.9437 60.5831L70.9903 60.8385L63.3378 72.2737L61.9437 60.5831ZM69.2466 49.0474L62.663 55.7572L57.5868 53.4375L55.1566 58.5466L53.5635 49.7609L69.2466 49.0474ZM30.7708 49.0474L46.4571 49.7609L44.8637 58.5466L42.4329 53.4383L37.3838 55.7574L30.7708 49.0474Z" fill="#CC6228"/>
<path d="M30.3203 47.6705L37.7691 55.229L38.0271 62.691L30.3203 47.6705ZM69.6942 47.657L61.9734 62.7042L62.2642 55.229L69.6942 47.657ZM46.086 48.1309L46.3858 50.0179L47.1266 54.7187L46.6503 69.1565L44.3986 57.5583L44.3979 57.4384L46.086 48.1309ZM53.9171 48.1047L55.6096 57.4384L55.6089 57.5583L53.3515 69.1856L53.2622 66.2773L52.91 54.6331L53.9171 48.1047Z" fill="#E27525"/>
<path d="M62.9277 54.9287L62.6757 61.4119L54.8179 67.534L53.2294 66.4117L55.0099 57.2403L62.9277 54.9287ZM37.1094 54.9287L44.9996 57.2403L46.7802 66.4117L45.1917 67.534L37.3336 61.4114L37.1094 54.9287Z" fill="#F5841F"/>
<path d="M34.1797 69.9343L44.2328 74.6977L44.1903 72.6636L45.0315 71.9251H54.9813L55.8529 72.661L55.7885 74.6935L65.7781 69.9463L60.9171 73.9632L55.0394 78H44.9507L39.077 73.9465L34.1797 69.9343Z" fill="#C0AC9D"/>
<path d="M53.6872 65.9424L55.1085 66.9466L55.9414 73.5923L54.736 72.5746H45.2685L44.0859 73.6128L44.8916 66.9471L46.3134 65.9424H53.6872Z" fill="#161616"/>
<path d="M79.8051 16.3079L83.2276 26.5751L81.0902 36.9566L82.6122 38.1306L80.5526 39.7019L82.1006 40.8974L80.0509 42.7639L81.3092 43.6752L77.9698 47.5753L64.273 43.5872L64.1544 43.5236L54.2843 35.1976L79.8051 16.3079ZM20.2038 16.3079L45.7249 35.1976L35.8545 43.5236L35.7359 43.5872L22.0391 47.5753L18.6996 43.6752L19.9569 42.7647L17.9085 40.8974L19.4534 39.7032L17.3629 38.1275L18.9423 36.9527L16.7812 26.5756L20.2038 16.3079Z" fill="#763E1A"/>
<path d="M63.6016 42.7152L78.1142 46.9405L82.829 61.472H70.3901L61.8195 61.58L68.0525 49.4307L63.6016 42.7152ZM36.4043 42.7152L31.9527 49.4307L38.1864 61.58L29.6198 61.472H17.2031L21.8915 46.9408L36.4043 42.7152ZM59.1871 24.3184L55.1279 35.2818L54.2664 50.092L53.9368 54.7342L53.9106 66.5928H46.0951L46.0697 54.7565L45.739 50.0881L44.8773 35.2818L40.8186 24.3184H59.1871Z" fill="#F5841F"/>
</svg>
