<svg width="101" height="100" fill="none" xmlns="http://www.w3.org/2000/svg"><path d="M32.43 38.34a26.5 26.5 0 0 1 36.9 0l1.23 1.2c.52.5.52 1.3 0 1.8l-4.19 4.11a.66.66 0 0 1-.92 0l-1.69-1.64a18.48 18.48 0 0 0-25.74 0l-1.8 1.76a.66.66 0 0 1-.93 0l-4.2-4.11c-.52-.5-.52-1.3 0-1.8l1.34-1.32ZM78 46.82l3.73 3.66c.51.5.51 1.3 0 1.8L64.9 68.78c-.52.5-1.33.5-1.85 0L51.11 57.06a.34.34 0 0 0-.47 0L38.7 68.77c-.51.5-1.33.5-1.84 0L20 52.3c-.51-.5-.51-1.31 0-1.81l3.73-3.65c.52-.5 1.33-.5 1.85 0l11.95 11.7c.13.12.33.12.46 0l11.95-11.7c.51-.5 1.33-.5 1.84 0l11.96 11.7c.13.12.33.12.46 0l11.95-11.7a1.3 1.3 0 0 1 1.85-.02Z" fill="#3A99FB"/></svg>