<svg width="112" height="120" fill="none" xmlns="http://www.w3.org/2000/svg"><g filter="url(#a)"><path d="M52.63 11.86a7 7 0 0 1 6.74 0l33 18.15A7 7 0 0 1 96 36.14v35.72A7 7 0 0 1 92.37 78l-33 18.15a7 7 0 0 1-6.74 0L19.63 78A7 7 0 0 1 16 71.86V36.14A7 7 0 0 1 19.63 30l33-18.15Z" fill="url(#b)" fill-opacity=".18" shape-rendering="crispEdges"/></g><path d="M43.6 47C40 47 37 50 37 53.6a6.6 6.6 0 0 0 6.6 6.6c1.76 0 3.46-.69 4.62-1.98.54-.54.54-1.36 0-1.9a1.31 1.31 0 0 0-1.9 0 3.7 3.7 0 0 1-2.72 1.15 3.87 3.87 0 1 1 0-7.75c1.22 0 2.3.48 3.06 1.43.47.61 1.29.68 1.9.2.61-.47.68-1.29.2-1.9A6.61 6.61 0 0 0 43.6 47ZM56.45 47.4a6.38 6.38 0 1 0-.02 12.78 6.38 6.38 0 0 0 .02-12.77Zm0 10.07a3.66 3.66 0 0 1-3.68-3.67 3.66 3.66 0 0 1 3.68-3.67 3.66 3.66 0 0 1 3.67 3.67 3.66 3.66 0 0 1-3.67 3.67ZM74.47 51.49c0-2.31-2.17-4.08-5.1-4.08-3 0-5.1 1.7-5.17 4.08 0 .75.62 1.36 1.36 1.36.75 0 1.36-.61 1.36-1.36 0-1.16 1.57-1.43 2.38-1.43.89 0 2.38.34 2.38 1.36 0 .61-1.76 1.63-2.92 2.31-2.1 1.23-4.56 2.65-4.56 5.1 0 .75.62 1.36 1.36 1.36h7.35c.75 0 1.36-.61 1.43-1.29 0-.75-.62-1.36-1.36-1.36H68c.61-.48 1.43-.95 2.18-1.36 2.1-1.22 4.28-2.45 4.28-4.7Z" fill="#fff"/><defs><radialGradient id="b" cx="0" cy="0" r="1" gradientUnits="userSpaceOnUse" gradientTransform="matrix(0 44 -40 0 56 54)"><stop stop-color="#fff"/><stop offset="1" stop-color="#fff" stop-opacity=".21"/></radialGradient><filter id="a" x="0" y=".99" width="112" height="118.02" filterUnits="userSpaceOnUse" color-interpolation-filters="sRGB"><feFlood flood-opacity="0" result="BackgroundImageFix"/><feColorMatrix in="SourceAlpha" values="0 0 0 0 0 0 0 0 0 0 0 0 0 0 0 0 0 0 127 0" result="hardAlpha"/><feOffset dy="6"/><feGaussianBlur stdDeviation="8"/><feComposite in2="hardAlpha" operator="out"/><feColorMatrix values="0 0 0 0 0 0 0 0 0 0 0 0 0 0 0 0 0 0 0.25 0"/><feBlend in2="BackgroundImageFix" result="effect1_dropShadow_370_25050"/><feBlend in="SourceGraphic" in2="effect1_dropShadow_370_25050" result="shape"/><feColorMatrix in="SourceAlpha" values="0 0 0 0 0 0 0 0 0 0 0 0 0 0 0 0 0 0 127 0" result="hardAlpha"/><feOffset dx="-1.12" dy="1.12"/><feGaussianBlur stdDeviation=".56"/><feComposite in2="hardAlpha" operator="arithmetic" k2="-1" k3="1"/><feColorMatrix values="0 0 0 0 1 0 0 0 0 1 0 0 0 0 1 0 0 0 0.558 0"/><feBlend in2="shape" result="effect2_innerShadow_370_25050"/><feColorMatrix in="SourceAlpha" values="0 0 0 0 0 0 0 0 0 0 0 0 0 0 0 0 0 0 127 0" result="hardAlpha"/><feOffset dx="1.12" dy="-1.12"/><feGaussianBlur stdDeviation=".56"/><feComposite in2="hardAlpha" operator="arithmetic" k2="-1" k3="1"/><feColorMatrix values="0 0 0 0 0.84 0 0 0 0 0.84 0 0 0 0 0.84 0 0 0 0.558 0"/><feBlend in2="effect2_innerShadow_370_25050" result="effect3_innerShadow_370_25050"/></filter></defs></svg>