<svg width="112" height="120" fill="none" xmlns="http://www.w3.org/2000/svg"><g filter="url(#a)"><path d="M52.63 11.86a7 7 0 0 1 6.74 0l33 18.15A7 7 0 0 1 96 36.14v35.72A7 7 0 0 1 92.37 78l-33 18.15a7 7 0 0 1-6.74 0L19.63 78A7 7 0 0 1 16 71.86V36.14A7 7 0 0 1 19.63 30l33-18.15Z" fill="url(#b)" fill-opacity=".18" shape-rendering="crispEdges"/></g><path d="M55.5 38a15.5 15.5 0 1 0 0 31 15.5 15.5 0 0 0 0-31Zm0 29.06a13.56 13.56 0 1 1 0-27.12 13.56 13.56 0 0 1 0 27.12Z" fill="#fff" stroke="#fff"/><path d="M54.49 50H59c.35 0 .68-.18.86-.47a.88.88 0 0 0 0-.93 1 1 0 0 0-.86-.46h-2.26v-1.2a.92.92 0 0 0-.5-.82c-.3-.16-.68-.16-1 0-.3.17-.49.48-.49.81v1.2h-.27a3.5 3.5 0 0 0-2.46.88A3.05 3.05 0 0 0 51 51.28c0 .85.37 1.67 1.03 2.26.66.6 1.55.91 2.46.88h2.15c.5 0 .95.24 1.2.64.24.4.24.9 0 1.3-.25.4-.7.64-1.2.64h-4.52c-.35 0-.68.18-.86.47a.88.88 0 0 0 0 .93 1 1 0 0 0 .86.46h2.64v1.2c0 .34.19.65.5.82.3.16.68.16 1 0 .3-.17.49-.48.49-.81v-1.21a3.39 3.39 0 0 0 2.7-1.67c.53-.96.5-2.1-.06-3.03a3.4 3.4 0 0 0-2.75-1.59h-2.15c-.38.02-.75-.1-1.02-.34a1.24 1.24 0 0 1-.43-.94c0-.35.15-.69.43-.93.27-.24.64-.37 1.02-.35V50Z" fill="#fff" stroke="#fff"/><defs><radialGradient id="b" cx="0" cy="0" r="1" gradientUnits="userSpaceOnUse" gradientTransform="matrix(0 44 -40 0 56 54)"><stop stop-color="#fff"/><stop offset="1" stop-color="#fff" stop-opacity=".21"/></radialGradient><filter id="a" x="0" y=".99" width="112" height="118.02" filterUnits="userSpaceOnUse" color-interpolation-filters="sRGB"><feFlood flood-opacity="0" result="BackgroundImageFix"/><feColorMatrix in="SourceAlpha" values="0 0 0 0 0 0 0 0 0 0 0 0 0 0 0 0 0 0 127 0" result="hardAlpha"/><feOffset dy="6"/><feGaussianBlur stdDeviation="8"/><feComposite in2="hardAlpha" operator="out"/><feColorMatrix values="0 0 0 0 0 0 0 0 0 0 0 0 0 0 0 0 0 0 0.25 0"/><feBlend in2="BackgroundImageFix" result="effect1_dropShadow_370_25055"/><feBlend in="SourceGraphic" in2="effect1_dropShadow_370_25055" result="shape"/><feColorMatrix in="SourceAlpha" values="0 0 0 0 0 0 0 0 0 0 0 0 0 0 0 0 0 0 127 0" result="hardAlpha"/><feOffset dx="-1.12" dy="1.12"/><feGaussianBlur stdDeviation=".56"/><feComposite in2="hardAlpha" operator="arithmetic" k2="-1" k3="1"/><feColorMatrix values="0 0 0 0 1 0 0 0 0 1 0 0 0 0 1 0 0 0 0.558 0"/><feBlend in2="shape" result="effect2_innerShadow_370_25055"/><feColorMatrix in="SourceAlpha" values="0 0 0 0 0 0 0 0 0 0 0 0 0 0 0 0 0 0 127 0" result="hardAlpha"/><feOffset dx="1.12" dy="-1.12"/><feGaussianBlur stdDeviation=".56"/><feComposite in2="hardAlpha" operator="arithmetic" k2="-1" k3="1"/><feColorMatrix values="0 0 0 0 0.84 0 0 0 0 0.84 0 0 0 0 0.84 0 0 0 0.558 0"/><feBlend in2="effect2_innerShadow_370_25055" result="effect3_innerShadow_370_25055"/></filter></defs></svg>