<svg width="112" height="120" fill="none" xmlns="http://www.w3.org/2000/svg"><g filter="url(#a)"><path d="M52.63 11.86a7 7 0 0 1 6.74 0l33 18.15A7 7 0 0 1 96 36.14v35.72A7 7 0 0 1 92.37 78l-33 18.15a7 7 0 0 1-6.74 0L19.63 78A7 7 0 0 1 16 71.86V36.14A7 7 0 0 1 19.63 30l33-18.15Z" fill="url(#b)" fill-opacity=".18" shape-rendering="crispEdges"/></g><g clip-path="url(#c)" fill="#fff"><path d="M63.6 42.67h-6.33c0-1.4 1.13-2.54 2.53-2.54 2.8 0 5.06-2.27 5.07-5.06V33.8a1.27 1.27 0 1 0-2.54 0v1.27c0 1.4-1.13 2.53-2.53 2.53a5.07 5.07 0 0 0-5.07 5.07H48.4a11.4 11.4 0 0 0 0 22.8h15.2a11.4 11.4 0 1 0 0-22.8Zm0 20.26H48.4a8.87 8.87 0 1 1 0-17.73h15.2a8.87 8.87 0 1 1 0 17.73Z"/><path d="M64.86 49a5.07 5.07 0 1 0 0 10.13 5.07 5.07 0 0 0 0-10.13Zm0 7.6a2.53 2.53 0 1 1 0-5.07 2.53 2.53 0 0 1 0 5.07ZM50.94 52.8H48.4v-2.53a1.27 1.27 0 1 0-2.53 0v2.53h-2.53a1.27 1.27 0 1 0 0 2.53h2.53v2.54a1.27 1.27 0 1 0 2.53 0v-2.54h2.54a1.27 1.27 0 1 0 0-2.53Z"/></g><defs><radialGradient id="b" cx="0" cy="0" r="1" gradientUnits="userSpaceOnUse" gradientTransform="matrix(0 44 -40 0 56 54)"><stop stop-color="#fff"/><stop offset="1" stop-color="#fff" stop-opacity=".21"/></radialGradient><clipPath id="c"><path fill="#fff" transform="translate(37 30)" d="M0 0h38v38H0z"/></clipPath><filter id="a" x="0" y=".99" width="112" height="118.02" filterUnits="userSpaceOnUse" color-interpolation-filters="sRGB"><feFlood flood-opacity="0" result="BackgroundImageFix"/><feColorMatrix in="SourceAlpha" values="0 0 0 0 0 0 0 0 0 0 0 0 0 0 0 0 0 0 127 0" result="hardAlpha"/><feOffset dy="6"/><feGaussianBlur stdDeviation="8"/><feComposite in2="hardAlpha" operator="out"/><feColorMatrix values="0 0 0 0 0 0 0 0 0 0 0 0 0 0 0 0 0 0 0.25 0"/><feBlend in2="BackgroundImageFix" result="effect1_dropShadow_370_25075"/><feBlend in="SourceGraphic" in2="effect1_dropShadow_370_25075" result="shape"/><feColorMatrix in="SourceAlpha" values="0 0 0 0 0 0 0 0 0 0 0 0 0 0 0 0 0 0 127 0" result="hardAlpha"/><feOffset dx="-1.12" dy="1.12"/><feGaussianBlur stdDeviation=".56"/><feComposite in2="hardAlpha" operator="arithmetic" k2="-1" k3="1"/><feColorMatrix values="0 0 0 0 1 0 0 0 0 1 0 0 0 0 1 0 0 0 0.558 0"/><feBlend in2="shape" result="effect2_innerShadow_370_25075"/><feColorMatrix in="SourceAlpha" values="0 0 0 0 0 0 0 0 0 0 0 0 0 0 0 0 0 0 127 0" result="hardAlpha"/><feOffset dx="1.12" dy="-1.12"/><feGaussianBlur stdDeviation=".56"/><feComposite in2="hardAlpha" operator="arithmetic" k2="-1" k3="1"/><feColorMatrix values="0 0 0 0 0.84 0 0 0 0 0.84 0 0 0 0 0.84 0 0 0 0.558 0"/><feBlend in2="effect2_innerShadow_370_25075" result="effect3_innerShadow_370_25075"/></filter></defs></svg>