<svg width="112" height="120" fill="none" xmlns="http://www.w3.org/2000/svg"><g filter="url(#a)"><path d="M52.63 11.86a7 7 0 0 1 6.74 0l33 18.15A7 7 0 0 1 96 36.14v35.72A7 7 0 0 1 92.37 78l-33 18.15a7 7 0 0 1-6.74 0L19.63 78A7 7 0 0 1 16 71.86V36.14A7 7 0 0 1 19.63 30l33-18.15Z" fill="url(#b)" fill-opacity=".18" shape-rendering="crispEdges"/></g><path d="m72.96 69.7-3.77-12.23a1 1 0 0 0-.95-.7h-6.6a1 1 0 1 0 0 2h5.86L70.65 69h-29.3l3.15-10.24h5.85a1 1 0 1 0 0-2h-6.59a1 1 0 0 0-.95.71l-3.77 12.24A1 1 0 0 0 40 71h32a1 1 0 0 0 .96-1.3Z" fill="#fff"/><path fill-rule="evenodd" clip-rule="evenodd" d="M52.04 31.02c-.57.13-.96.7-1.28 1.9l-.3 1.07c-.14.5-.54 1.18-.73 1.23-.1.02-.31-.02-.49-.09a3.18 3.18 0 0 0-.85-.13c-.48-.01-.56.01-.77.22-.13.13-.28.39-.34.56a7.84 7.84 0 0 0-.05 3.87c.19.5.58.96 1.09 1.24.2.11.37.24.37.28 0 .04-.14.11-.31.16-1.48.37-2.9 1.11-3.25 1.69-.2.35-.16.95.1 1.35.5.74 1.89 1.51 3.4 1.88 1.02.25 2.78.27 3.55.04.67-.2 1.35-.5 1.5-.67.08-.07.2-.13.26-.13.39 0-.15 8.58-.76 11.97-.44 2.52-1.07 4.2-1.8 4.8-.37.3-.4.43-.18.63.19.17.56.11.84-.12a5.67 5.67 0 0 0 1.3-2.33 26.36 26.36 0 0 0 .91-4.52c.26-1.71.54-5.43.69-9.07.12-3 .11-3.02-.38-3.02-.2 0-.31.09-.51.37-.8 1.12-2.1 1.62-3.92 1.51a6.4 6.4 0 0 1-2.67-.66c-1.15-.5-1.84-1.18-1.61-1.62.27-.52 1.32-1 3.64-1.64 1.02-.28 1.37-.47 1.37-.74 0-.24-.32-.46-.66-.46-.4 0-1.33-.24-1.6-.41a1.85 1.85 0 0 1-.5-.56c-.2-.37-.22-.48-.2-1.81 0-1.97.2-2.35.96-2 .16.07.51.13.78.13.46 0 .52-.02.9-.37.23-.21.41-.45.41-.53a7.77 7.77 0 0 0 .58-1.88c.17-.66.47-1.29.67-1.38.15-.07.28-.02.71.27.98.67 1.2.8 1.56.9.54.17.69.11 1.92-.74.52-.36.53-.36.7-.2.09.08.24.43.33.76.42 1.6 1.1 2.17 2.65 2.17.7 0 1.95.2 2.95.47 2.68.72 3.25 2.34 1.4 3.98-.57.51-1.06.79-1.4.79-.1 0-.47-.17-.83-.38-.87-.49-1.33-.6-1.98-.47-.52.1-1.3.55-2.07 1.19-.57.46-1.15.69-1.6.61-.62-.1-1.34-.68-2.05-1.66a2.36 2.36 0 0 1-.32-.53c0-.05-.04-.1-.08-.1-.05 0-.13-.08-.18-.19-.15-.28-.69-.8-.83-.8-.24 0-.44.26-.38.49.04.12.1.24.14.26.04.02.4.49.79 1.04a6.28 6.28 0 0 0 2.09 2.05c.25.11.56.17.99.17.76 0 1.16-.16 2.06-.84 1.2-.9 1.33-.96 1.86-.96.4 0 .57.05.96.29.73.44.87.5 1.46.5.72 0 1.19-.23 1.98-.92.92-.8 1.41-1.81 1.3-2.65-.24-1.73-2.25-2.75-6.1-3.07-1.43-.12-1.62-.3-2.05-1.77-.12-.4-.29-.83-.37-.95-.2-.27-.58-.4-1-.32a5.1 5.1 0 0 0-1.6.9c-.26.28-.88.1-1.5-.42-.52-.45-1.26-.73-1.67-.63Zm7.75 10.54c-1.22.54-1.51.97-1.44 2.1.06 1.1.59 1.88 1.54 2.3.7.3 2.8.25 4.39-.1 1.66-.37 2.98-1.44 2.68-2.16-.26-.62-.9-.94-2.35-1.15a7.1 7.1 0 0 1-3.04-.96c-.58-.32-1.12-.33-1.78-.03Zm1.65.82c.81.46 1.53.67 2.88.87 1.2.18 1.35.22 1.63.44.29.23.27.32-.08.63-.6.5-1.8.9-3.34 1.08-1.44.18-2.08.09-2.64-.36-.54-.42-.73-.81-.73-1.52 0-.53.03-.64.22-.82.2-.19 1.15-.68 1.33-.7.04 0 .37.17.73.38Zm-4.19 2.52c-.14.13-.15.46-.15 2.92 0 5.34.4 10.77.94 12.7.51 1.82 1.11 2.66 1.74 2.45.31-.1.27-.36-.11-.73-.5-.47-.74-1.19-1.05-3-.4-2.42-.67-7.07-.67-12 0-1.67-.03-2.32-.12-2.4-.16-.14-.4-.12-.58.06Z" fill="#fff" stroke="#fff"/><defs><radialGradient id="b" cx="0" cy="0" r="1" gradientUnits="userSpaceOnUse" gradientTransform="matrix(0 44 -40 0 56 54)"><stop stop-color="#fff"/><stop offset="1" stop-color="#fff" stop-opacity=".21"/></radialGradient><filter id="a" x="0" y=".99" width="112" height="118.02" filterUnits="userSpaceOnUse" color-interpolation-filters="sRGB"><feFlood flood-opacity="0" result="BackgroundImageFix"/><feColorMatrix in="SourceAlpha" values="0 0 0 0 0 0 0 0 0 0 0 0 0 0 0 0 0 0 127 0" result="hardAlpha"/><feOffset dy="6"/><feGaussianBlur stdDeviation="8"/><feComposite in2="hardAlpha" operator="out"/><feColorMatrix values="0 0 0 0 0 0 0 0 0 0 0 0 0 0 0 0 0 0 0.25 0"/><feBlend in2="BackgroundImageFix" result="effect1_dropShadow_370_25080"/><feBlend in="SourceGraphic" in2="effect1_dropShadow_370_25080" result="shape"/><feColorMatrix in="SourceAlpha" values="0 0 0 0 0 0 0 0 0 0 0 0 0 0 0 0 0 0 127 0" result="hardAlpha"/><feOffset dx="-1.12" dy="1.12"/><feGaussianBlur stdDeviation=".56"/><feComposite in2="hardAlpha" operator="arithmetic" k2="-1" k3="1"/><feColorMatrix values="0 0 0 0 1 0 0 0 0 1 0 0 0 0 1 0 0 0 0.558 0"/><feBlend in2="shape" result="effect2_innerShadow_370_25080"/><feColorMatrix in="SourceAlpha" values="0 0 0 0 0 0 0 0 0 0 0 0 0 0 0 0 0 0 127 0" result="hardAlpha"/><feOffset dx="1.12" dy="-1.12"/><feGaussianBlur stdDeviation=".56"/><feComposite in2="hardAlpha" operator="arithmetic" k2="-1" k3="1"/><feColorMatrix values="0 0 0 0 0.84 0 0 0 0 0.84 0 0 0 0 0.84 0 0 0 0.558 0"/><feBlend in2="effect2_innerShadow_370_25080" result="effect3_innerShadow_370_25080"/></filter></defs></svg>