<svg width="112" height="120" fill="none" xmlns="http://www.w3.org/2000/svg"><g filter="url(#a)"><path d="M52.63 11.86a7 7 0 0 1 6.74 0l33 18.15A7 7 0 0 1 96 36.14v35.72A7 7 0 0 1 92.37 78l-33 18.15a7 7 0 0 1-6.74 0L19.63 78A7 7 0 0 1 16 71.86V36.14A7 7 0 0 1 19.63 30l33-18.15Z" fill="url(#b)" fill-opacity=".18" shape-rendering="crispEdges"/></g><g clip-path="url(#c)"><path d="M66.43 38.4c-.28-.32-.7-.46-1.11-.38a19.08 19.08 0 0 0-8.82 4.43 19.1 19.1 0 0 0-8.8-4.43c-.42-.08-.84.06-1.12.38a19.6 19.6 0 0 0-1.77 23.24 9.5 9.5 0 0 0 9.91 4.43c.28 2.59.32 5.16.12 7.68a1.16 1.16 0 0 0 2.31.19c.22-2.7.17-5.43-.13-8.17a9.55 9.55 0 0 0 11.17-4.13 19.6 19.6 0 0 0-1.76-23.24Zm-19.66 22a17.3 17.3 0 0 1 1.12-19.96 16.98 16.98 0 0 1 12.74 15.21 7.37 7.37 0 0 1-4 7.35 50.85 50.85 0 0 0-2.6-9.38l1.33-3.73a1.16 1.16 0 1 0-2.19-.77l-.45 1.3c-.67-1.5-1.4-3-2.22-4.5A1.16 1.16 0 0 0 48.47 47a58.93 58.93 0 0 1 4.48 10.59l-2.43-.85a1.16 1.16 0 0 0-.75 2.2l3.93 1.35c.29 1.16.52 2.3.71 3.48a7.19 7.19 0 0 1-7.64-3.37Zm19.47 0a7.16 7.16 0 0 1-6.79 3.5 9.67 9.67 0 0 0 3.5-8.43 19.57 19.57 0 0 0-4.81-11.37c2-1.76 4.4-3.01 6.98-3.66a17.3 17.3 0 0 1 1.12 19.97Z" fill="#fff"/></g><defs><radialGradient id="b" cx="0" cy="0" r="1" gradientUnits="userSpaceOnUse" gradientTransform="matrix(0 44 -40 0 56 54)"><stop stop-color="#fff"/><stop offset="1" stop-color="#fff" stop-opacity=".21"/></radialGradient><clipPath id="c"><path fill="#fff" transform="translate(38 38)" d="M0 0h37v37H0z"/></clipPath><filter id="a" x="0" y=".99" width="112" height="118.02" filterUnits="userSpaceOnUse" color-interpolation-filters="sRGB"><feFlood flood-opacity="0" result="BackgroundImageFix"/><feColorMatrix in="SourceAlpha" values="0 0 0 0 0 0 0 0 0 0 0 0 0 0 0 0 0 0 127 0" result="hardAlpha"/><feOffset dy="6"/><feGaussianBlur stdDeviation="8"/><feComposite in2="hardAlpha" operator="out"/><feColorMatrix values="0 0 0 0 0 0 0 0 0 0 0 0 0 0 0 0 0 0 0.25 0"/><feBlend in2="BackgroundImageFix" result="effect1_dropShadow_370_25070"/><feBlend in="SourceGraphic" in2="effect1_dropShadow_370_25070" result="shape"/><feColorMatrix in="SourceAlpha" values="0 0 0 0 0 0 0 0 0 0 0 0 0 0 0 0 0 0 127 0" result="hardAlpha"/><feOffset dx="-1.12" dy="1.12"/><feGaussianBlur stdDeviation=".56"/><feComposite in2="hardAlpha" operator="arithmetic" k2="-1" k3="1"/><feColorMatrix values="0 0 0 0 1 0 0 0 0 1 0 0 0 0 1 0 0 0 0.558 0"/><feBlend in2="shape" result="effect2_innerShadow_370_25070"/><feColorMatrix in="SourceAlpha" values="0 0 0 0 0 0 0 0 0 0 0 0 0 0 0 0 0 0 127 0" result="hardAlpha"/><feOffset dx="1.12" dy="-1.12"/><feGaussianBlur stdDeviation=".56"/><feComposite in2="hardAlpha" operator="arithmetic" k2="-1" k3="1"/><feColorMatrix values="0 0 0 0 0.84 0 0 0 0 0.84 0 0 0 0 0.84 0 0 0 0.558 0"/><feBlend in2="effect2_innerShadow_370_25070" result="effect3_innerShadow_370_25070"/></filter></defs></svg>