<svg width="112" height="120" fill="none" xmlns="http://www.w3.org/2000/svg"><g filter="url(#a)"><path d="M52.63 11.86a7 7 0 0 1 6.74 0l33 18.15A7 7 0 0 1 96 36.14v35.72A7 7 0 0 1 92.37 78l-33 18.15a7 7 0 0 1-6.74 0L19.63 78A7 7 0 0 1 16 71.86V36.14A7 7 0 0 1 19.63 30l33-18.15Z" fill="url(#b)" fill-opacity=".18" shape-rendering="crispEdges"/></g><path d="M71.23 52.02c1.15-1.86.16-4.25-2.01-4.88V44c0-2.76-2.37-5-5.27-5h-4.73A3.53 3.53 0 0 0 56 37c-1.44 0-2.68.82-3.22 2h-4.69a5.15 5.15 0 0 0-5.27 5v3.15c-2.14.64-3.12 3-2 4.85A4.35 4.35 0 0 0 38 56v3c0 .55.47 1 1.05 1h3.77v3c0 2.76 2.36 5 5.27 5h2.1v2c0 .55.48 1 1.06 1h9.5c.58 0 1.05-.45 1.05-1v-2h2.15c2.9 0 5.27-2.24 5.27-5v-3h3.73c.58 0 1.05-.45 1.05-1v-3a4.34 4.34 0 0 0-2.77-3.98Zm-3.03-.35c-.78 0-1.4-.6-1.4-1.34 0-.73.62-1.33 1.4-1.33.77 0 1.4.6 1.4 1.33 0 .74-.63 1.34-1.4 1.34Zm-13.43-8h2.46A2.4 2.4 0 0 1 59.69 46v2h-7.38v-2a2.4 2.4 0 0 1 2.46-2.33ZM56 39c.78 0 1.4.6 1.4 1.33 0 .74-.62 1.34-1.4 1.34-.78 0-1.4-.6-1.4-1.34 0-.73.62-1.33 1.4-1.33ZM43.87 49c.78 0 1.4.6 1.4 1.33 0 .74-.62 1.34-1.4 1.34-.77 0-1.4-.6-1.4-1.34 0-.73.63-1.33 1.4-1.33Zm-3.76 7a2.4 2.4 0 0 1 2.46-2.33h2.53A2.4 2.4 0 0 1 47.56 56v2h-7.45v-2Zm19.58 13h-7.38v-2a2.4 2.4 0 0 1 2.46-2.33h2.46A2.4 2.4 0 0 1 59.69 67v2ZM56 62.67c-.78 0-1.4-.6-1.4-1.34 0-.73.62-1.33 1.4-1.33.78 0 1.4.6 1.4 1.33 0 .74-.62 1.34-1.4 1.34Zm11.1.33c0 1.65-1.41 3-3.15 3h-2.27a4.42 4.42 0 0 0-2.65-2.98c.3-.5.49-1.07.49-1.69A3.43 3.43 0 0 0 56 58a3.43 3.43 0 0 0-3.52 3.33c0 .62.18 1.2.49 1.69A4.42 4.42 0 0 0 50.32 66H48.1a3.09 3.09 0 0 1-3.16-3v-3h3.69c.58 0 1.05-.45 1.05-1v-3a4.34 4.34 0 0 0-2.77-3.98c1.14-1.84.18-4.22-1.97-4.87V44c0-1.65 1.42-3 3.16-3h4.47c.07.36.22.7.4 1.02A4.34 4.34 0 0 0 50.2 46v3c0 .55.47 1 1.05 1h9.5c.58 0 1.05-.45 1.05-1v-3a4.34 4.34 0 0 0-2.77-3.98c.2-.31.34-.66.41-1.02h4.5a3.09 3.09 0 0 1 3.17 3v3.16c-2.12.66-3.07 3-1.96 4.84a4.35 4.35 0 0 0-2.82 4v3c0 .55.47 1 1.05 1h3.73v3Zm4.8-5h-7.46v-2a2.4 2.4 0 0 1 2.46-2.33h2.53A2.4 2.4 0 0 1 71.89 56v2Z" fill="#fff"/><defs><radialGradient id="b" cx="0" cy="0" r="1" gradientUnits="userSpaceOnUse" gradientTransform="matrix(0 44 -40 0 56 54)"><stop stop-color="#fff"/><stop offset="1" stop-color="#fff" stop-opacity=".21"/></radialGradient><filter id="a" x="0" y=".99" width="112" height="118.02" filterUnits="userSpaceOnUse" color-interpolation-filters="sRGB"><feFlood flood-opacity="0" result="BackgroundImageFix"/><feColorMatrix in="SourceAlpha" values="0 0 0 0 0 0 0 0 0 0 0 0 0 0 0 0 0 0 127 0" result="hardAlpha"/><feOffset dy="6"/><feGaussianBlur stdDeviation="8"/><feComposite in2="hardAlpha" operator="out"/><feColorMatrix values="0 0 0 0 0 0 0 0 0 0 0 0 0 0 0 0 0 0 0.25 0"/><feBlend in2="BackgroundImageFix" result="effect1_dropShadow_370_25065"/><feBlend in="SourceGraphic" in2="effect1_dropShadow_370_25065" result="shape"/><feColorMatrix in="SourceAlpha" values="0 0 0 0 0 0 0 0 0 0 0 0 0 0 0 0 0 0 127 0" result="hardAlpha"/><feOffset dx="-1.12" dy="1.12"/><feGaussianBlur stdDeviation=".56"/><feComposite in2="hardAlpha" operator="arithmetic" k2="-1" k3="1"/><feColorMatrix values="0 0 0 0 1 0 0 0 0 1 0 0 0 0 1 0 0 0 0.558 0"/><feBlend in2="shape" result="effect2_innerShadow_370_25065"/><feColorMatrix in="SourceAlpha" values="0 0 0 0 0 0 0 0 0 0 0 0 0 0 0 0 0 0 127 0" result="hardAlpha"/><feOffset dx="1.12" dy="-1.12"/><feGaussianBlur stdDeviation=".56"/><feComposite in2="hardAlpha" operator="arithmetic" k2="-1" k3="1"/><feColorMatrix values="0 0 0 0 0.84 0 0 0 0 0.84 0 0 0 0 0.84 0 0 0 0.558 0"/><feBlend in2="effect2_innerShadow_370_25065" result="effect3_innerShadow_370_25065"/></filter></defs></svg>