<svg width="112" height="120" fill="none" xmlns="http://www.w3.org/2000/svg"><g filter="url(#a)"><path d="M52.63 11.86a7 7 0 0 1 6.74 0l33 18.15A7 7 0 0 1 96 36.14v35.72A7 7 0 0 1 92.37 78l-33 18.15a7 7 0 0 1-6.74 0L19.63 78A7 7 0 0 1 16 71.86V36.14A7 7 0 0 1 19.63 30l33-18.15Z" fill="url(#b)" fill-opacity=".18" shape-rendering="crispEdges"/></g><path fill-rule="evenodd" clip-rule="evenodd" d="M51.69 34.02c-.64.17-1.06.9-1.4 2.43l-.33 1.38c-.15.65-.6 1.52-.8 1.57-.1.03-.34-.02-.53-.1a3 3 0 0 0-.94-.18c-.52-.01-.6.02-.83.3-.14.16-.31.48-.38.7-.36 1.27-.39 3.88-.05 4.97.2.65.64 1.22 1.2 1.58.21.14.4.3.4.36s-.16.15-.34.2c-1.62.48-3.18 1.43-3.54 2.17-.23.46-.19 1.22.1 1.73.54.95 2.06 1.94 3.72 2.41 1.1.32 3.02.34 3.87.05a4.97 4.97 0 0 0 1.64-.85c.07-.1.2-.17.27-.17.43 0-.17 10.99-.82 15.33-.5 3.23-1.18 5.38-1.97 6.15-.4.4-.44.56-.2.81.2.21.61.14.92-.16a7.67 7.67 0 0 0 1.41-2.98 38.9 38.9 0 0 0 1-5.8c.29-2.18.6-6.95.75-11.62.13-3.83.13-3.86-.41-3.86-.21 0-.34.11-.56.47-.88 1.43-2.3 2.08-4.27 1.94a6.16 6.16 0 0 1-2.92-.85c-1.25-.63-2-1.51-1.76-2.07.3-.67 1.44-1.28 3.98-2.1 1.11-.37 1.5-.61 1.5-.96 0-.3-.36-.58-.73-.58-.43 0-1.45-.3-1.75-.53a2.3 2.3 0 0 1-.53-.72c-.23-.48-.24-.61-.23-2.31.01-2.52.22-3.01 1.06-2.56.17.09.55.16.84.16.5 0 .57-.03.99-.48.24-.26.45-.57.45-.67a11.23 11.23 0 0 0 .64-2.41c.17-.84.5-1.65.72-1.77.16-.1.3-.03.77.35 1.06.85 1.32 1.02 1.7 1.16.6.2.75.13 2.1-.96.56-.46.58-.46.76-.26.1.1.26.55.35.98.47 2.06 1.22 2.78 2.9 2.78.77 0 2.12.26 3.22.6 2.92.93 3.54 3 1.53 5.1-.63.66-1.16 1-1.52 1-.11 0-.53-.2-.92-.47-.94-.63-1.45-.77-2.16-.6a6 6 0 0 0-2.26 1.52c-.62.6-1.25.88-1.74.78-.67-.13-1.46-.87-2.24-2.13-.2-.31-.35-.62-.35-.68 0-.06-.04-.11-.09-.11-.04 0-.13-.12-.2-.26-.16-.36-.74-1.02-.9-1.02-.26 0-.48.33-.4.63.03.15.1.3.14.33.04.03.43.62.86 1.33.85 1.37 1.64 2.29 2.28 2.63.28.14.61.2 1.09.21.83 0 1.26-.2 2.24-1.07 1.31-1.15 1.45-1.23 2.03-1.23.44 0 .62.06 1.04.36.8.58.96.64 1.6.64.78 0 1.3-.28 2.17-1.17 1-1.02 1.53-2.32 1.4-3.4-.25-2.22-2.45-3.51-6.65-3.93-1.55-.15-1.77-.37-2.23-2.26a6.2 6.2 0 0 0-.4-1.22c-.23-.35-.64-.5-1.1-.41-.34.06-1.46.8-1.74 1.15-.28.36-.97.13-1.64-.54-.56-.57-1.37-.93-1.81-.8Zm8.44 13.5c-1.32.7-1.64 1.26-1.57 2.7.07 1.4.64 2.4 1.68 2.94.77.39 3.07.33 4.79-.12 1.82-.48 3.25-1.84 2.92-2.77-.28-.8-.98-1.2-2.56-1.47a6.97 6.97 0 0 1-3.32-1.23c-.62-.41-1.21-.43-1.94-.04Zm1.8 1.06c.9.58 1.67.86 3.15 1.12 1.32.22 1.47.27 1.78.56.3.29.3.41-.1.8-.64.65-1.96 1.16-3.64 1.4-1.57.21-2.27.1-2.88-.47-.59-.54-.79-1.04-.8-1.95 0-.68.04-.82.25-1.06a5.24 5.24 0 0 1 1.45-.88c.04 0 .4.21.8.48Zm-4.56 3.23c-.16.17-.17.59-.17 3.75 0 6.83.44 13.8 1.03 16.27.56 2.32 1.2 3.4 1.9 3.13.33-.14.3-.47-.13-.94-.53-.6-.8-1.52-1.14-3.84-.45-3.1-.73-9.06-.73-15.38 0-2.14-.04-2.97-.13-3.06-.18-.19-.44-.16-.63.07Z" fill="#fff" stroke="#fff" stroke-width="2"/><defs><radialGradient id="b" cx="0" cy="0" r="1" gradientUnits="userSpaceOnUse" gradientTransform="matrix(0 44 -40 0 56 54)"><stop stop-color="#fff"/><stop offset="1" stop-color="#fff" stop-opacity=".21"/></radialGradient><filter id="a" x="0" y=".99" width="112" height="118.02" filterUnits="userSpaceOnUse" color-interpolation-filters="sRGB"><feFlood flood-opacity="0" result="BackgroundImageFix"/><feColorMatrix in="SourceAlpha" values="0 0 0 0 0 0 0 0 0 0 0 0 0 0 0 0 0 0 127 0" result="hardAlpha"/><feOffset dy="6"/><feGaussianBlur stdDeviation="8"/><feComposite in2="hardAlpha" operator="out"/><feColorMatrix values="0 0 0 0 0 0 0 0 0 0 0 0 0 0 0 0 0 0 0.25 0"/><feBlend in2="BackgroundImageFix" result="effect1_dropShadow_370_25045"/><feBlend in="SourceGraphic" in2="effect1_dropShadow_370_25045" result="shape"/><feColorMatrix in="SourceAlpha" values="0 0 0 0 0 0 0 0 0 0 0 0 0 0 0 0 0 0 127 0" result="hardAlpha"/><feOffset dx="-1.12" dy="1.12"/><feGaussianBlur stdDeviation=".56"/><feComposite in2="hardAlpha" operator="arithmetic" k2="-1" k3="1"/><feColorMatrix values="0 0 0 0 1 0 0 0 0 1 0 0 0 0 1 0 0 0 0.558 0"/><feBlend in2="shape" result="effect2_innerShadow_370_25045"/><feColorMatrix in="SourceAlpha" values="0 0 0 0 0 0 0 0 0 0 0 0 0 0 0 0 0 0 127 0" result="hardAlpha"/><feOffset dx="1.12" dy="-1.12"/><feGaussianBlur stdDeviation=".56"/><feComposite in2="hardAlpha" operator="arithmetic" k2="-1" k3="1"/><feColorMatrix values="0 0 0 0 0.84 0 0 0 0 0.84 0 0 0 0 0.84 0 0 0 0.558 0"/><feBlend in2="effect2_innerShadow_370_25045" result="effect3_innerShadow_370_25045"/></filter></defs></svg>