<svg width="112" height="120" fill="none" xmlns="http://www.w3.org/2000/svg"><g filter="url(#a)"><path d="M52.63 11.86a7 7 0 0 1 6.74 0l33 18.15A7 7 0 0 1 96 36.14v35.72A7 7 0 0 1 92.37 78l-33 18.15a7 7 0 0 1-6.74 0L19.63 78A7 7 0 0 1 16 71.86V36.14A7 7 0 0 1 19.63 30l33-18.15Z" fill="url(#b)" fill-opacity=".18" shape-rendering="crispEdges"/></g><path fill-rule="evenodd" clip-rule="evenodd" d="M31.65 48.1c-.25.17-.32.55-.26 1.27l.07.66c.02.3-.04.75-.13.8-.04.03-.15.04-.24.03-.1 0-.3.02-.43.06-.23.07-.27.1-.33.25-.03.1-.06.26-.06.37.03.6.4 1.76.7 2.19.18.25.45.44.75.52.11.04.21.08.22.1.01.03-.04.1-.11.14-.64.44-1.18 1.08-1.23 1.46-.04.24.1.57.3.75.37.34 1.17.56 1.96.53a3.78 3.78 0 0 0 1.7-.54c.27-.21.54-.49.58-.6.02-.06.07-.1.1-.12.19-.06 1.52 4.86 1.86 6.87.26 1.5.27 2.53.04 2.99-.12.23-.12.3.03.38.12.07.28-.02.37-.2.15-.27.23-.95.19-1.51a18.22 18.22 0 0 0-.4-2.7c-.2-1-.76-3.14-1.37-5.22-.5-1.7-.5-1.72-.74-1.64-.09.03-.13.1-.17.28-.17.76-.7 1.25-1.58 1.47a2.8 2.8 0 0 1-1.39.05c-.64-.1-1.1-.39-1.07-.66.04-.34.45-.77 1.43-1.5.43-.32.56-.48.51-.63-.04-.14-.24-.21-.4-.16-.19.06-.67.07-.84.02a1.06 1.06 0 0 1-.33-.24c-.17-.18-.2-.24-.44-.99-.35-1.1-.34-1.35.1-1.28a1 1 0 0 0 .39-.04c.22-.08.24-.1.36-.36.06-.15.1-.3.1-.36a5.25 5.25 0 0 0-.07-1.15c-.05-.4-.03-.8.05-.88.06-.06.13-.06.39.04.58.23.72.27.9.27.3 0 .35-.05.78-.72.18-.29.18-.29.3-.23.05.04.19.2.29.38.5.84.93 1.05 1.66.81.34-.1.97-.19 1.5-.2 1.4 0 1.97.82 1.4 2.03-.18.38-.36.61-.52.66a1.5 1.5 0 0 1-.47-.08c-.5-.14-.74-.13-1.03.05-.22.14-.51.51-.76 1-.18.34-.42.56-.64.59-.32.04-.77-.18-1.29-.62a1.48 1.48 0 0 1-.25-.25c0-.03-.03-.05-.05-.04-.02 0-.08-.03-.13-.08-.12-.14-.47-.35-.54-.32-.11.03-.16.21-.08.33.03.06.08.12.1.13.03 0 .29.21.58.46.56.48 1.04.77 1.37.83.14.02.3 0 .5-.06.36-.12.52-.27.83-.8.4-.69.45-.74.7-.83.19-.06.28-.06.5.01.44.14.52.15.8.05.33-.1.52-.3.77-.82.28-.6.33-1.24.12-1.7-.43-.94-1.58-1.2-3.47-.77-.7.15-.82.08-1.3-.68a2.89 2.89 0 0 0-.35-.48c-.15-.12-.35-.13-.53-.03-.15.08-.52.57-.6.76-.07.2-.4.2-.79 0-.33-.17-.73-.21-.9-.1Zm5.64 4.74c-.48.5-.54.78-.3 1.4.24.62.63.98 1.16 1.06.4.06 1.38-.29 2.07-.74.72-.47 1.15-1.27.87-1.64-.24-.3-.6-.38-1.33-.28-.75.11-1.02.1-1.62-.06-.33-.1-.6-.01-.85.26Zm.93.2c.48.13.86.14 1.53.04.61-.08.68-.08.86 0 .18.08.19.14.08.37-.19.37-.7.79-1.39 1.13-.65.32-.97.37-1.32.2-.33-.15-.5-.34-.63-.74-.1-.3-.1-.36-.05-.5.06-.13.42-.56.5-.6l.42.1Zm-1.52 2.08c-.04.1.01.28.47 1.67 1 3.01 2.2 6.01 2.8 7.02.59.94 1.03 1.32 1.29 1.1.13-.1.06-.24-.2-.39-.31-.19-.56-.55-1.05-1.53a60.82 60.82 0 0 1-2.54-6.66 6.4 6.4 0 0 0-.5-1.33c-.1-.06-.21 0-.27.12ZM81.35 48.1c.25.17.32.55.26 1.27l-.07.66c-.02.3.04.75.13.8.04.03.15.04.24.03.1 0 .3.02.43.06.23.07.27.1.33.25.03.1.06.26.06.37a5.5 5.5 0 0 1-.7 2.19c-.18.25-.45.44-.75.52-.11.04-.21.08-.22.1-.01.03.04.1.11.14.64.44 1.18 1.08 1.23 1.46.04.24-.1.57-.3.75-.37.34-1.17.56-1.96.53a3.78 3.78 0 0 1-1.7-.54c-.27-.21-.54-.49-.58-.6-.02-.06-.07-.1-.1-.12-.19-.06-1.52 4.86-1.86 6.87-.26 1.5-.27 2.53-.04 2.99.12.23.12.3-.03.38-.12.07-.28-.02-.37-.2a3.57 3.57 0 0 1-.19-1.51 18.22 18.22 0 0 1 .4-2.7c.2-1 .76-3.14 1.37-5.22.5-1.7.5-1.72.74-1.64.09.03.13.1.17.28.17.76.7 1.25 1.58 1.47.53.14.77.14 1.4.05.63-.1 1.08-.39 1.06-.66-.04-.34-.45-.77-1.43-1.5-.43-.32-.56-.48-.51-.63.04-.14.24-.21.4-.16.19.06.67.07.84.02.08-.03.23-.14.33-.24.17-.18.2-.24.44-.99.35-1.1.34-1.35-.1-1.28a1 1 0 0 1-.39-.04c-.22-.08-.24-.1-.36-.36-.06-.15-.1-.3-.1-.36a5.25 5.25 0 0 1 .07-1.15c.05-.4.03-.8-.05-.88-.06-.06-.13-.06-.39.04-.58.23-.72.27-.9.27-.3 0-.35-.05-.78-.72-.18-.29-.18-.29-.3-.23-.05.04-.19.2-.29.38-.5.84-.93 1.05-1.66.81-.34-.1-.97-.19-1.5-.2-1.4 0-1.97.82-1.4 2.03.18.38.36.61.52.66.05.02.26-.02.47-.08.5-.14.74-.13 1.03.05.22.14.51.51.76 1 .18.34.42.56.64.59.32.04.77-.18 1.29-.62.13-.11.24-.23.25-.25 0-.03.03-.05.05-.04.02 0 .08-.03.13-.08.12-.14.47-.35.54-.32.11.03.16.21.08.33-.03.06-.08.12-.1.13-.03 0-.29.21-.58.46-.56.48-1.04.77-1.37.83-.14.02-.3 0-.5-.06-.37-.12-.52-.27-.83-.8-.4-.69-.45-.74-.7-.83-.19-.06-.28-.06-.5.01-.44.14-.52.15-.8.05-.33-.1-.52-.3-.77-.82-.28-.6-.33-1.24-.12-1.7.43-.94 1.58-1.2 3.47-.77.7.15.82.08 1.3-.68.13-.21.29-.43.35-.48.15-.12.35-.13.53-.03.14.08.52.57.6.76.07.2.4.2.79 0 .33-.17.73-.21.9-.1Zm-5.64 4.74c.48.5.54.78.3 1.4-.24.62-.63.98-1.16 1.06-.4.06-1.38-.29-2.07-.74-.72-.47-1.15-1.27-.87-1.64.24-.3.6-.38 1.33-.28.75.11 1.02.1 1.62-.06.33-.1.6-.01.85.26Zm-.93.2c-.48.13-.86.14-1.53.04-.61-.08-.68-.08-.86 0-.18.08-.19.14-.08.37.19.37.7.79 1.39 1.13.65.32.97.37 1.32.2.33-.15.5-.34.63-.74.1-.3.1-.36.05-.5a2.4 2.4 0 0 0-.5-.6l-.42.1Zm1.52 2.08c.04.1-.01.28-.47 1.67-1 3.01-2.2 6.01-2.8 7.02-.59.94-1.03 1.32-1.29 1.1-.13-.1-.06-.24.2-.39.31-.19.56-.55 1.05-1.53.64-1.3 1.63-3.88 2.54-6.66.31-.94.45-1.3.5-1.33.1-.06.21 0 .27.12ZM51 30.03c-.65.18-1.09.98-1.46 2.66l-.33 1.51c-.16.72-.62 1.67-.83 1.73-.1.03-.36-.02-.56-.12-.2-.1-.64-.18-.97-.19-.55-.01-.64.02-.87.32-.15.18-.32.54-.4.79a13.57 13.57 0 0 0-.05 5.44c.22.71.67 1.34 1.24 1.74.23.15.42.33.42.4 0 .05-.16.15-.35.21-1.68.52-3.3 1.57-3.69 2.38-.24.5-.19 1.34.11 1.9.57 1.05 2.15 2.13 3.88 2.65 1.15.34 3.15.37 4.02.05a5.1 5.1 0 0 0 1.71-.94c.08-.1.21-.18.3-.18.43 0-.19 12.06-.87 16.83-.5 3.54-1.23 5.9-2.05 6.75-.42.43-.46.6-.2.89.21.23.63.15.95-.18.5-.5 1.16-1.97 1.47-3.27a44.72 44.72 0 0 0 1.05-6.36c.29-2.4.6-7.64.77-12.76.14-4.2.13-4.24-.43-4.24-.22 0-.35.12-.58.52-.92 1.57-2.39 2.28-4.45 2.13a6.17 6.17 0 0 1-3.04-.93c-1.3-.7-2.08-1.67-1.83-2.27.31-.74 1.5-1.4 4.14-2.32 1.17-.4 1.56-.66 1.56-1.04 0-.33-.37-.64-.75-.64a4.5 4.5 0 0 1-1.83-.58 2.51 2.51 0 0 1-.55-.8c-.24-.51-.25-.66-.24-2.53.02-2.77.23-3.3 1.1-2.81.18.1.58.18.89.18.52 0 .59-.03 1.02-.53.26-.29.47-.62.47-.73a12.87 12.87 0 0 0 .66-2.65c.18-.93.53-1.81.75-1.94.17-.1.32-.04.8.38 1.12.94 1.38 1.13 1.78 1.27.62.22.78.15 2.18-1.05.6-.5.6-.5.8-.29.1.12.27.6.37 1.08.48 2.26 1.26 3.05 3.01 3.06.8 0 2.22.28 3.36.66 3.04 1 3.69 3.29 1.59 5.6-.65.71-1.2 1.1-1.58 1.1-.12 0-.55-.24-.96-.53-.98-.7-1.51-.85-2.25-.66-.59.14-1.47.77-2.35 1.67-.65.65-1.3.96-1.81.86-.7-.14-1.52-.96-2.33-2.34-.2-.35-.37-.68-.37-.75 0-.07-.04-.12-.1-.12-.04 0-.14-.13-.2-.28-.17-.4-.77-1.12-.94-1.12-.27 0-.5.36-.43.68.04.17.11.33.16.37.04.03.45.69.9 1.46.88 1.5 1.7 2.51 2.37 2.88.29.16.64.24 1.13.24.87 0 1.32-.22 2.34-1.17 1.36-1.27 1.5-1.36 2.11-1.36.45 0 .65.07 1.09.4.83.63 1 .7 1.66.7.81 0 1.35-.3 2.26-1.28a5.02 5.02 0 0 0 1.47-3.73c-.27-2.44-2.56-3.86-6.94-4.32-1.61-.16-1.84-.4-2.32-2.48a7.05 7.05 0 0 0-.42-1.34c-.23-.38-.66-.55-1.14-.45-.36.07-1.52.88-1.81 1.27-.3.39-1.01.14-1.71-.6-.59-.62-1.43-1.02-1.9-.88Zm8.8 14.82c-1.38.76-1.71 1.37-1.64 2.95.08 1.54.68 2.65 1.76 3.23.8.43 3.19.36 4.99-.13 1.89-.53 3.38-2.02 3.04-3.04-.29-.88-1.02-1.32-2.67-1.62a7.04 7.04 0 0 1-3.45-1.35c-.65-.45-1.27-.46-2.02-.04ZM61.69 46c.93.64 1.74.95 3.28 1.23 1.37.25 1.53.3 1.85.62.32.31.3.45-.1.88-.67.71-2.05 1.27-3.79 1.53-1.64.24-2.36.11-3-.51-.61-.6-.83-1.15-.83-2.14 0-.75.03-.9.25-1.16.22-.26 1.3-.95 1.51-.97.05 0 .42.23.83.52Zm-4.76 3.54c-.15.2-.17.65-.18 4.12 0 7.5.46 15.14 1.08 17.86.58 2.55 1.26 3.73 1.97 3.44.36-.15.32-.51-.12-1.03-.56-.66-.84-1.67-1.2-4.22-.46-3.4-.75-9.94-.76-16.88 0-2.35-.03-3.26-.13-3.36-.18-.2-.45-.17-.66.07Z" fill="#fff" stroke="#fff"/><defs><radialGradient id="b" cx="0" cy="0" r="1" gradientUnits="userSpaceOnUse" gradientTransform="matrix(0 44 -40 0 56 54)"><stop stop-color="#fff"/><stop offset="1" stop-color="#fff" stop-opacity=".21"/></radialGradient><filter id="a" x="0" y=".99" width="112" height="118.02" filterUnits="userSpaceOnUse" color-interpolation-filters="sRGB"><feFlood flood-opacity="0" result="BackgroundImageFix"/><feColorMatrix in="SourceAlpha" values="0 0 0 0 0 0 0 0 0 0 0 0 0 0 0 0 0 0 127 0" result="hardAlpha"/><feOffset dy="6"/><feGaussianBlur stdDeviation="8"/><feComposite in2="hardAlpha" operator="out"/><feColorMatrix values="0 0 0 0 0 0 0 0 0 0 0 0 0 0 0 0 0 0 0.25 0"/><feBlend in2="BackgroundImageFix" result="effect1_dropShadow_370_25060"/><feBlend in="SourceGraphic" in2="effect1_dropShadow_370_25060" result="shape"/><feColorMatrix in="SourceAlpha" values="0 0 0 0 0 0 0 0 0 0 0 0 0 0 0 0 0 0 127 0" result="hardAlpha"/><feOffset dx="-1.12" dy="1.12"/><feGaussianBlur stdDeviation=".56"/><feComposite in2="hardAlpha" operator="arithmetic" k2="-1" k3="1"/><feColorMatrix values="0 0 0 0 1 0 0 0 0 1 0 0 0 0 1 0 0 0 0.558 0"/><feBlend in2="shape" result="effect2_innerShadow_370_25060"/><feColorMatrix in="SourceAlpha" values="0 0 0 0 0 0 0 0 0 0 0 0 0 0 0 0 0 0 127 0" result="hardAlpha"/><feOffset dx="1.12" dy="-1.12"/><feGaussianBlur stdDeviation=".56"/><feComposite in2="hardAlpha" operator="arithmetic" k2="-1" k3="1"/><feColorMatrix values="0 0 0 0 0.84 0 0 0 0 0.84 0 0 0 0 0.84 0 0 0 0.558 0"/><feBlend in2="effect2_innerShadow_370_25060" result="effect3_innerShadow_370_25060"/></filter></defs></svg>