<svg width="285" height="94" viewBox="0 0 285 94" fill="none" xmlns="http://www.w3.org/2000/svg">
<g filter="url(#filter0_bii_58_1788)">
<path fill-rule="evenodd" clip-rule="evenodd" d="M17.0278 2.76369H76.855C80.8358 2.76369 83.571 2.76897 85.6255 3.04519C87.6084 3.31179 88.5807 3.78904 89.2561 4.4644C89.9314 5.13975 90.4087 6.11206 90.6753 8.09499C90.9515 10.1495 90.9568 12.8847 90.9568 16.8654V25.9901H93.4453V16.8654C93.4453 9.04468 93.4453 5.13432 91.0157 2.70473C88.5861 0.275146 84.6758 0.275146 76.855 0.275146H17.0278C9.20704 0.275146 5.29667 0.275146 2.86709 2.70473C0.4375 5.13432 0.4375 9.04468 0.4375 16.8654V76.5903C0.4375 84.4111 0.4375 88.3214 2.86709 90.751C5.29667 93.1806 9.20704 93.1806 17.0278 93.1806H76.8551C84.6758 93.1806 88.5861 93.1806 91.0157 90.751C93.4453 88.3214 93.4453 84.4111 93.4453 76.5903V66.6362H90.9568V76.5903C90.9568 80.5711 90.9515 83.3063 90.6753 85.3608C90.4087 87.3437 89.9314 88.316 89.2561 88.9914C88.5807 89.6667 87.6084 90.144 85.6255 90.4106C83.571 90.6868 80.8358 90.6921 76.8551 90.6921H17.0278C13.0471 90.6921 10.3119 90.6868 8.25734 90.4106C6.27441 90.144 5.3021 89.6667 4.62675 88.9914C3.95139 88.316 3.47414 87.3437 3.20755 85.3608C2.93132 83.3063 2.92604 80.5711 2.92604 76.5903V16.8654C2.92604 12.8847 2.93132 10.1495 3.20755 8.09499C3.47414 6.11206 3.95139 5.13975 4.62675 4.4644C5.30211 3.78904 6.27441 3.31179 8.25734 3.04519C10.3119 2.76897 13.047 2.76369 17.0278 2.76369Z" fill="url(#paint0_linear_58_1788)"/>
</g>
<g filter="url(#filter1_bii_58_1788)">
<path d="M60.056 58.1448L54.8337 46.8537L67.2382 20.1836H59.9433L51.2048 38.9715L46.1754 28.0476C43.9761 23.2704 39.1537 20.1836 33.8898 20.1836C26.4335 20.1836 20.3672 26.2431 20.3672 33.6913V59.7647C20.3672 67.2129 26.4335 73.2724 33.8898 73.2724H33.9178C39.1591 73.2724 43.9729 70.2044 46.1814 65.4562L51.1742 54.7218L54.0542 60.9252C57.5499 68.4546 65.1032 73.2724 73.4122 73.2724V66.6639C67.7012 66.6639 62.4586 63.3199 60.056 58.1448ZM40.1815 62.6717C39.0535 65.0969 36.5949 66.6639 33.9178 66.6639H33.8898C30.0814 66.6639 26.9831 63.569 26.9831 59.7648V33.6913C26.9831 29.8871 30.0814 26.7922 33.8899 26.7922C36.5784 26.7922 39.0415 28.3688 40.1648 30.8088L47.5452 46.8397L40.1815 62.6717Z" fill="url(#paint1_linear_58_1788)"/>
</g>
<path d="M90.5606 44.9361H102.97V46.0974C102.97 48.2873 102.472 50.2892 101.477 52.1031C100.504 53.8948 99.1212 55.3105 97.3294 56.3502C95.5598 57.3677 93.5358 57.8765 91.2574 57.8765C89.0675 57.8765 87.0435 57.3567 85.1854 56.317C83.3494 55.2552 81.8894 53.8174 80.8055 52.0036C79.7216 50.1676 79.1797 48.1325 79.1797 45.8983C79.1797 43.6642 79.7216 41.6291 80.8055 39.7931C81.8894 37.9571 83.3494 36.5193 85.1854 35.4797C87.0435 34.44 89.0675 33.9202 91.2574 33.9202C93.9561 33.9202 96.3008 34.628 98.2917 36.0437C100.305 37.4594 101.742 39.3618 102.605 41.7508H98.7562C98.0262 40.3793 97.0198 39.2954 95.7368 38.4991C94.4759 37.7027 92.9828 37.3046 91.2574 37.3046C89.7311 37.3046 88.3265 37.6917 87.0435 38.4659C85.7826 39.218 84.7761 40.2466 84.024 41.5517C83.2941 42.8568 82.9291 44.3057 82.9291 45.8983C82.9291 47.491 83.2941 48.9399 84.024 50.245C84.7761 51.5501 85.7826 52.5787 87.0435 53.3308C88.3265 54.0829 89.7311 54.4589 91.2574 54.4589C93.3367 54.4589 95.0732 53.9059 96.4667 52.7999C97.8824 51.6939 98.7673 50.2007 99.1212 48.3205H90.5606V44.9361Z" fill="white"/>
<path d="M110.59 47.2256V54.0939H120.411V57.5115H106.94V34.2852H120.079V37.6696H110.59V43.808H119.748V47.2256H110.59Z" fill="white"/>
<path d="M142.067 51.1077V34.2852H145.584V57.5115H143.195L128.596 40.7222V57.5115H125.045V34.2852H127.467L142.067 51.1077Z" fill="white"/>
<path d="M154.869 47.2256V54.0939H164.69V57.5115H151.219V34.2852H164.358V37.6696H154.869V43.808H164.027V47.2256H154.869Z" fill="white"/>
<path d="M182.862 57.5115L175.363 48.4201H172.974V57.5115H169.324V34.2852H176.624C178.261 34.2852 179.688 34.5948 180.904 35.2142C182.121 35.8115 183.061 36.652 183.725 37.7359C184.388 38.7977 184.72 40.0033 184.72 41.3526C184.72 42.9674 184.256 44.372 183.327 45.5665C182.42 46.7389 181.159 47.5574 179.544 48.0219L187.408 57.5115H182.862ZM172.974 37.6696V45.0025H176.591C177.962 45.0025 179.035 44.6707 179.809 44.007C180.584 43.3213 180.971 42.4365 180.971 41.3526C180.971 40.2687 180.584 39.3839 179.809 38.6982C179.035 38.0124 177.962 37.6696 176.591 37.6696H172.974Z" fill="white"/>
<path d="M209.301 57.5115H205.385L203.262 51.9372H193.474L191.35 57.5115H187.501L196.758 34.2852H200.043L209.301 57.5115ZM202.034 48.5196L198.384 38.9968L194.734 48.5196H202.034Z" fill="white"/>
<path d="M217.76 57.5115H214.11V37.6696H208.237V34.2852H223.633V37.6696H217.76V57.5115Z" fill="white"/>
<path d="M230.859 57.5115H227.209V34.2852H230.859V57.5115Z" fill="white"/>
<path d="M247.476 57.8765C245.264 57.8765 243.229 57.3567 241.37 56.317C239.512 55.2552 238.041 53.8174 236.957 52.0036C235.874 50.1676 235.332 48.1325 235.332 45.8983C235.332 43.6642 235.874 41.6402 236.957 39.8263C238.041 37.9903 239.512 36.5525 241.37 35.5128C243.229 34.4511 245.264 33.9202 247.476 33.9202C249.688 33.9202 251.712 34.4511 253.548 35.5128C255.406 36.5525 256.877 37.9903 257.961 39.8263C259.045 41.6402 259.587 43.6642 259.587 45.8983C259.587 48.1325 259.045 50.1676 257.961 52.0036C256.877 53.8174 255.406 55.2552 253.548 56.317C251.712 57.3567 249.688 57.8765 247.476 57.8765ZM247.476 54.4589C249.024 54.4589 250.429 54.0829 251.69 53.3308C252.973 52.5787 253.979 51.5501 254.709 50.245C255.461 48.9399 255.837 47.491 255.837 45.8983C255.837 44.3057 255.461 42.8568 254.709 41.5517C253.979 40.2245 252.973 39.1848 251.69 38.4327C250.429 37.6806 249.024 37.3046 247.476 37.3046C245.927 37.3046 244.512 37.6806 243.229 38.4327C241.946 39.1848 240.928 40.2245 240.176 41.5517C239.446 42.8568 239.081 44.3057 239.081 45.8983C239.081 47.491 239.446 48.9399 240.176 50.245C240.928 51.5501 241.946 52.5787 243.229 53.3308C244.512 54.0829 245.927 54.4589 247.476 54.4589Z" fill="white"/>
<path d="M280.923 51.1077V34.2852H284.441V57.5115H282.052L267.452 40.7222V57.5115H263.902V34.2852H266.324L280.923 51.1077Z" fill="white"/>
<defs>
<filter id="filter0_bii_58_1788" x="-20.2705" y="-20.4329" width="134.424" height="134.322" filterUnits="userSpaceOnUse" color-interpolation-filters="sRGB">
<feFlood flood-opacity="0" result="BackgroundImageFix"/>
<feGaussianBlur in="BackgroundImage" stdDeviation="10.354"/>
<feComposite in2="SourceAlpha" operator="in" result="effect1_backgroundBlur_58_1788"/>
<feBlend mode="normal" in="SourceGraphic" in2="effect1_backgroundBlur_58_1788" result="shape"/>
<feColorMatrix in="SourceAlpha" type="matrix" values="0 0 0 0 0 0 0 0 0 0 0 0 0 0 0 0 0 0 127 0" result="hardAlpha"/>
<feOffset dx="-1" dy="1"/>
<feGaussianBlur stdDeviation="0.5"/>
<feComposite in2="hardAlpha" operator="arithmetic" k2="-1" k3="1"/>
<feColorMatrix type="matrix" values="0 0 0 0 1 0 0 0 0 1 0 0 0 0 1 0 0 0 0.566 0"/>
<feBlend mode="normal" in2="shape" result="effect2_innerShadow_58_1788"/>
<feColorMatrix in="SourceAlpha" type="matrix" values="0 0 0 0 0 0 0 0 0 0 0 0 0 0 0 0 0 0 127 0" result="hardAlpha"/>
<feOffset dx="1" dy="-1"/>
<feGaussianBlur stdDeviation="0.5"/>
<feComposite in2="hardAlpha" operator="arithmetic" k2="-1" k3="1"/>
<feColorMatrix type="matrix" values="0 0 0 0 0.355765 0 0 0 0 0.672 0 0 0 0 0.787294 0 0 0 0.566 0"/>
<feBlend mode="normal" in2="effect2_innerShadow_58_1788" result="effect3_innerShadow_58_1788"/>
</filter>
<filter id="filter1_bii_58_1788" x="-0.340841" y="-0.524435" width="94.461" height="94.5049" filterUnits="userSpaceOnUse" color-interpolation-filters="sRGB">
<feFlood flood-opacity="0" result="BackgroundImageFix"/>
<feGaussianBlur in="BackgroundImage" stdDeviation="10.354"/>
<feComposite in2="SourceAlpha" operator="in" result="effect1_backgroundBlur_58_1788"/>
<feBlend mode="normal" in="SourceGraphic" in2="effect1_backgroundBlur_58_1788" result="shape"/>
<feColorMatrix in="SourceAlpha" type="matrix" values="0 0 0 0 0 0 0 0 0 0 0 0 0 0 0 0 0 0 127 0" result="hardAlpha"/>
<feOffset dx="-1" dy="1"/>
<feGaussianBlur stdDeviation="0.5"/>
<feComposite in2="hardAlpha" operator="arithmetic" k2="-1" k3="1"/>
<feColorMatrix type="matrix" values="0 0 0 0 1 0 0 0 0 1 0 0 0 0 1 0 0 0 0.566 0"/>
<feBlend mode="normal" in2="shape" result="effect2_innerShadow_58_1788"/>
<feColorMatrix in="SourceAlpha" type="matrix" values="0 0 0 0 0 0 0 0 0 0 0 0 0 0 0 0 0 0 127 0" result="hardAlpha"/>
<feOffset dx="1" dy="-1"/>
<feGaussianBlur stdDeviation="0.5"/>
<feComposite in2="hardAlpha" operator="arithmetic" k2="-1" k3="1"/>
<feColorMatrix type="matrix" values="0 0 0 0 0.355765 0 0 0 0 0.672 0 0 0 0 0.787294 0 0 0 0.566 0"/>
<feBlend mode="normal" in2="effect2_innerShadow_58_1788" result="effect3_innerShadow_58_1788"/>
</filter>
<linearGradient id="paint0_linear_58_1788" x1="46.9414" y1="0.275146" x2="46.9414" y2="93.1806" gradientUnits="userSpaceOnUse">
<stop stop-color="#6CCCEF" stop-opacity="0.15"/>
<stop offset="1" stop-color="#6CDFEF" stop-opacity="0.44"/>
</linearGradient>
<linearGradient id="paint1_linear_58_1788" x1="46.8897" y1="20.1836" x2="46.8897" y2="73.2724" gradientUnits="userSpaceOnUse">
<stop stop-color="#6CCCEF" stop-opacity="0.15"/>
<stop offset="1" stop-color="#6CDFEF" stop-opacity="0.44"/>
</linearGradient>
</defs>
</svg>
