<svg width="56" height="56" viewBox="0 0 56 56" fill="none" xmlns="http://www.w3.org/2000/svg">
<path fill-rule="evenodd" clip-rule="evenodd" d="M7 28C7 11.6667 11.6688 7 28.0011 7C44.3333 7 49 11.6667 49 28C49 44.3333 44.1538 49 28.0011 49C11.8483 49 7 44.3333 7 28Z" stroke="white" stroke-width="3" stroke-linecap="round" stroke-linejoin="round"/>
<path d="M32.0729 21.5066L28.0059 25.5738C26.6503 24.2186 25.2943 22.8622 23.9385 21.5066C22.37 19.9381 19.9389 22.3702 21.506 23.9391C22.862 25.2938 24.2185 26.6505 25.573 28.0061C24.2179 29.3623 22.8622 30.718 21.506 32.0731C19.9389 33.6411 22.3703 36.0725 23.9385 34.5056C25.2941 33.1495 26.6501 31.7933 28.0057 30.4381L32.0727 34.5056C33.6411 36.0736 36.073 33.6413 34.5052 32.0731C33.1492 30.717 31.7936 29.3614 30.4371 28.0056C31.7934 26.6496 33.149 25.2936 34.5052 23.9378C36.0732 22.3702 33.6414 19.9381 32.0727 21.5074" fill="white"/>
</svg>
