<svg width="284" height="93" fill="none" xmlns="http://www.w3.org/2000/svg">
    <path fill="white" d="M90.12 44.66h12.41v1.16c0 2.2-.5 4.2-1.49 6-.97 1.8-2.36 3.22-4.15 4.26a11.96 11.96 0 0 1-6.07 1.52c-2.19 0-4.21-.52-6.07-1.56a11.79 11.79 0 0 1-6-10.42 11.79 11.79 0 0 1 6-10.42 12.23 12.23 0 0 1 6.07-1.55 11.62 11.62 0 0 1 11.35 7.83h-3.85a8.21 8.21 0 0 0-7.5-4.45 8.42 8.42 0 0 0-8.33 8.6 8.42 8.42 0 0 0 4.11 7.43 8.18 8.18 0 0 0 4.22 1.12c2.08 0 3.82-.55 5.2-1.66a7.15 7.15 0 0 0 2.66-4.47h-8.56v-3.39ZM110.15 46.95v6.87h9.82v3.42H106.5V34h13.14v3.38h-9.49v6.14h9.16v3.42h-9.16ZM141.63 50.83V34.01h3.52v23.23h-2.4l-14.6-16.8v16.8h-3.54V34h2.42l14.6 16.82ZM154.43 46.95v6.87h9.82v3.42h-13.47V34h13.14v3.38h-9.49v6.14h9.16v3.42h-9.16ZM182.43 57.24l-7.5-9.1h-2.4v9.1h-3.64V34h7.3c1.63 0 3.06.31 4.28.93a6.65 6.65 0 0 1 3.81 6.14c0 1.61-.46 3.02-1.4 4.21a7.1 7.1 0 0 1-3.77 2.46l7.86 9.49h-4.54Zm-9.9-19.85v7.34h3.62c1.38 0 2.45-.33 3.22-1a3.38 3.38 0 0 0 1.16-2.65c0-1.09-.38-1.97-1.16-2.66a4.69 4.69 0 0 0-3.22-1.03h-3.61ZM208.86 57.24h-3.91l-2.13-5.58h-9.78l-2.13 5.58h-3.85L196.32 34h3.29l9.25 23.23Zm-7.26-9-3.65-9.52-3.65 9.52h7.3ZM217.32 57.24h-3.65V37.39h-5.87v-3.38h15.4v3.38h-5.88v19.85ZM230.42 57.24h-3.65V34h3.65v23.23ZM247.04 57.6a11.97 11.97 0 0 1-10.52-5.87 11.78 11.78 0 0 1-1.63-6.1c0-2.24.55-4.27 1.63-6.08a11.64 11.64 0 0 1 4.41-4.31c1.86-1.06 3.9-1.6 6.1-1.6 2.22 0 4.24.54 6.08 1.6a11.64 11.64 0 0 1 4.41 4.31 11.6 11.6 0 0 1 1.63 6.07 11.78 11.78 0 0 1-6.04 10.42 12.1 12.1 0 0 1-6.07 1.56Zm0-3.42c1.55 0 2.95-.37 4.21-1.12a8.55 8.55 0 0 0 4.15-7.43c0-1.6-.38-3.05-1.13-4.35a8.03 8.03 0 0 0-3.02-3.12 8.07 8.07 0 0 0-4.21-1.13 8.25 8.25 0 0 0-7.3 4.25 8.76 8.76 0 0 0-1.1 4.34 8.35 8.35 0 0 0 8.4 8.56ZM280.49 50.83V34.01H284v23.23h-2.39l-14.6-16.8v16.8h-3.55V34h2.43l14.6 16.82Z"/>
</svg>