<svg width="112" height="120" viewBox="0 0 112 120" fill="none" xmlns="http://www.w3.org/2000/svg">
<g filter="url(#filter0_dii_370_25060)">
<path d="M52.6266 11.8554C54.7272 10.7001 57.2729 10.7001 59.3734 11.8554L92.3734 30.0054C94.6103 31.2356 96 33.5861 96 36.1389V71.8611C96 74.4139 94.6103 76.7644 92.3734 77.9946L59.3734 96.1446C57.2728 97.2999 54.7271 97.2999 52.6266 96.1446L19.6266 77.9946C17.3897 76.7644 16 74.4139 16 71.8611V36.1389C16 33.5861 17.3897 31.2356 19.6266 30.0054L52.6266 11.8554Z" fill="url(#paint0_radial_370_25060)" fill-opacity="0.179" shape-rendering="crispEdges"/>
</g>
<path fill-rule="evenodd" clip-rule="evenodd" d="M31.6539 48.1041C31.4037 48.2687 31.3259 48.6498 31.3947 49.3747C31.4182 49.6225 31.4455 49.916 31.4554 50.0269C31.4828 50.3353 31.4164 50.7795 31.3347 50.8335C31.2946 50.86 31.183 50.8732 31.0868 50.8628C30.9905 50.8523 30.7964 50.8784 30.6553 50.9206C30.4254 50.9896 30.392 51.0151 30.3325 51.1677C30.2961 51.2612 30.2697 51.4271 30.2739 51.5363C30.2972 52.1444 30.6636 53.2996 30.9685 53.7265C31.1518 53.9831 31.4233 54.1744 31.717 54.254C31.8333 54.2855 31.9349 54.3311 31.9429 54.3554C31.9508 54.3796 31.8981 54.4406 31.8258 54.4909C31.1932 54.931 30.6522 55.5749 30.598 55.9521C30.5643 56.1865 30.6963 56.5171 30.8967 56.7006C31.2692 57.0416 32.0716 57.2567 32.8631 57.2277C33.3902 57.2084 34.2292 56.9439 34.553 56.6949C34.8342 56.4787 35.1011 56.2037 35.1449 56.0851C35.1639 56.0338 35.2072 55.9826 35.2412 55.9715C35.4251 55.9109 36.7582 60.8322 37.1016 62.8396C37.3567 64.3307 37.3685 65.3745 37.1352 65.8276C37.0168 66.0576 37.0238 66.1355 37.1696 66.2131C37.2874 66.2758 37.4521 66.187 37.5438 66.0111C37.685 65.7407 37.7669 65.061 37.7261 64.4984C37.6825 63.8958 37.5787 63.1048 37.4716 62.5575C37.4269 62.3295 37.3605 61.9893 37.324 61.8014C37.1292 60.798 36.5717 58.656 35.9649 56.5792C35.4659 54.8716 35.461 54.8607 35.2249 54.9386C35.1344 54.9685 35.0938 55.0349 35.0501 55.2244C34.8756 55.9819 34.3533 56.4673 33.4717 56.6911C32.9432 56.8253 32.703 56.8331 32.0795 56.736C31.443 56.6368 30.9879 56.3548 31.0141 56.0759C31.0458 55.7382 31.4563 55.307 32.4393 54.5792C32.8728 54.2582 33.0023 54.0985 32.9523 53.9466C32.9089 53.8145 32.7147 53.7398 32.553 53.793C32.3644 53.855 31.8788 53.8646 31.7133 53.8095C31.6285 53.7813 31.4783 53.6735 31.3794 53.57C31.2103 53.3928 31.1846 53.3345 30.9429 52.5836C30.5855 51.4727 30.6027 51.228 31.0328 51.3049C31.1206 51.3206 31.2978 51.2988 31.4267 51.2564C31.6459 51.1842 31.669 51.1616 31.7856 50.9037C31.8542 50.7522 31.8979 50.5906 31.8828 50.5447C31.8677 50.4988 31.8666 50.4353 31.8805 50.4036C31.9038 50.3504 31.88 50.0084 31.8099 49.3911C31.7651 48.9957 31.7923 48.5935 31.8695 48.5095C31.928 48.4459 31.996 48.4535 32.2569 48.5526C32.8447 48.7757 32.9795 48.8153 33.1631 48.8183C33.4531 48.8231 33.5103 48.77 33.9375 48.0986C34.118 47.8148 34.1242 47.8101 34.2316 47.872C34.2919 47.9068 34.4262 48.0782 34.5302 48.2529C35.0298 49.0929 35.4604 49.3032 36.1918 49.0648C36.5275 48.9553 37.1561 48.8722 37.6834 48.8677C39.0884 48.8554 39.6588 49.6798 39.0858 50.8943C38.9079 51.2713 38.7276 51.5018 38.5699 51.5537C38.5225 51.5693 38.3112 51.5332 38.1004 51.4735C37.5994 51.3316 37.3579 51.342 37.0737 51.5179C36.8482 51.6575 36.5602 52.0321 36.31 52.5114C36.1269 52.862 35.8945 53.0772 35.6675 53.1061C35.3548 53.146 34.9047 52.9291 34.3841 52.4878C34.2538 52.3774 34.1399 52.265 34.131 52.238C34.1222 52.211 34.0979 52.1945 34.0772 52.2013C34.0565 52.2081 34.0012 52.1707 33.9543 52.1183C33.8317 51.9812 33.4823 51.774 33.4124 51.7971C33.2986 51.8345 33.2521 52.0128 33.3253 52.1312C33.3634 52.1928 33.4136 52.2488 33.4368 52.2557C33.4601 52.2626 33.7161 52.4707 34.0057 52.718C34.5737 53.2031 35.0509 53.4921 35.378 53.5489C35.5201 53.5735 35.6758 53.5549 35.8815 53.4887C36.245 53.3717 36.4034 53.2195 36.7062 52.6959C37.1081 52.0009 37.1552 51.945 37.4085 51.8616C37.5983 51.7992 37.6878 51.8015 37.9163 51.8744C38.3456 52.0114 38.4257 52.0165 38.7044 51.9248C39.0437 51.8131 39.2277 51.6165 39.4766 51.0996C39.7624 50.5063 39.809 49.8587 39.5988 49.4015C39.167 48.462 38.0219 48.206 36.13 48.6259C35.4347 48.7802 35.309 48.7147 34.8321 47.9489C34.7004 47.7375 34.5419 47.5223 34.4797 47.4708C34.3339 47.3498 34.1321 47.3395 33.9467 47.4434C33.805 47.5229 33.4263 48.0087 33.3544 48.2034C33.2815 48.4008 32.9513 48.3985 32.5618 48.198C32.2334 48.029 31.8314 47.9874 31.6539 48.1041ZM37.2878 52.8378C36.8121 53.3358 36.7515 53.6245 36.9918 54.2483C37.2263 54.8569 37.6227 55.2173 38.1498 55.3012C38.5416 55.3637 39.5329 55.0096 40.218 54.5627C40.9392 54.0921 41.367 53.2884 41.0896 52.925C40.853 52.6152 40.4882 52.5382 39.7593 52.6443C39.0088 52.7536 38.7417 52.7426 38.1382 52.5776C37.8068 52.487 37.547 52.5665 37.2878 52.8378ZM38.2244 53.0423C38.6963 53.1738 39.0763 53.1844 39.7548 53.0849C40.3612 52.9961 40.434 52.9955 40.6126 53.0788C40.7881 53.1606 40.7997 53.2175 40.6877 53.4452C40.5012 53.824 39.9975 54.2366 39.3033 54.5793C38.6505 54.9015 38.3309 54.9522 37.9806 54.789C37.6473 54.6337 37.4857 54.4419 37.3532 54.0444C37.2529 53.7433 37.2463 53.6765 37.304 53.5443C37.3631 53.4089 37.7239 52.9832 37.8088 52.9487C37.8267 52.9415 38.0137 52.9836 38.2244 53.0423ZM36.7029 55.1182C36.662 55.216 36.7143 55.4031 37.1717 56.794C38.1609 59.8023 39.3621 62.8038 39.979 63.8091C40.5574 64.7515 40.9974 65.1329 41.2559 64.9156C41.3852 64.8069 41.3192 64.6681 41.0683 64.5213C40.7485 64.3341 40.4956 63.9677 40.0136 62.9931C39.372 61.6955 38.3838 59.1092 37.4667 56.3268C37.1567 55.3865 37.0217 55.0261 36.969 54.998C36.8645 54.9424 36.756 54.9915 36.7029 55.1182Z" fill="white" stroke="white"/>
<path fill-rule="evenodd" clip-rule="evenodd" d="M81.3461 48.1041C81.5963 48.2687 81.6741 48.6498 81.6053 49.3747C81.5818 49.6225 81.5545 49.916 81.5446 50.0269C81.5172 50.3353 81.5836 50.7795 81.6653 50.8335C81.7054 50.86 81.817 50.8732 81.9132 50.8628C82.0095 50.8523 82.2036 50.8784 82.3447 50.9206C82.5746 50.9896 82.608 51.0151 82.6675 51.1677C82.7039 51.2612 82.7303 51.4271 82.7261 51.5363C82.7028 52.1444 82.3364 53.2996 82.0315 53.7265C81.8482 53.9831 81.5767 54.1744 81.283 54.254C81.1667 54.2855 81.0651 54.3311 81.0571 54.3554C81.0492 54.3796 81.1019 54.4406 81.1742 54.4909C81.8068 54.931 82.3478 55.5749 82.402 55.9521C82.4357 56.1865 82.3037 56.5171 82.1033 56.7006C81.7308 57.0416 80.9284 57.2567 80.1369 57.2277C79.6098 57.2084 78.7708 56.9439 78.447 56.6949C78.1658 56.4787 77.8989 56.2037 77.8551 56.0851C77.8361 56.0338 77.7928 55.9826 77.7588 55.9715C77.5749 55.9109 76.2418 60.8322 75.8984 62.8396C75.6433 64.3307 75.6315 65.3745 75.8648 65.8276C75.9832 66.0576 75.9762 66.1355 75.8304 66.2131C75.7126 66.2758 75.5479 66.187 75.4562 66.0111C75.315 65.7407 75.2331 65.061 75.2739 64.4984C75.3175 63.8958 75.4213 63.1048 75.5284 62.5575C75.5731 62.3295 75.6395 61.9893 75.676 61.8014C75.8708 60.798 76.4283 58.656 77.0351 56.5792C77.5341 54.8716 77.539 54.8607 77.7751 54.9386C77.8656 54.9685 77.9062 55.0349 77.9499 55.2244C78.1244 55.9819 78.6467 56.4673 79.5283 56.6911C80.0568 56.8253 80.297 56.8331 80.9205 56.736C81.557 56.6368 82.0121 56.3548 81.9859 56.0759C81.9542 55.7382 81.5437 55.307 80.5607 54.5792C80.1272 54.2582 79.9977 54.0985 80.0477 53.9466C80.0911 53.8145 80.2853 53.7398 80.447 53.793C80.6356 53.855 81.1212 53.8646 81.2867 53.8095C81.3715 53.7813 81.5217 53.6735 81.6206 53.57C81.7897 53.3928 81.8154 53.3345 82.0571 52.5836C82.4145 51.4727 82.3973 51.228 81.9672 51.3049C81.8794 51.3206 81.7022 51.2988 81.5733 51.2564C81.3541 51.1842 81.331 51.1616 81.2144 50.9037C81.1458 50.7522 81.1021 50.5906 81.1172 50.5447C81.1323 50.4988 81.1334 50.4353 81.1195 50.4036C81.0962 50.3504 81.12 50.0084 81.1901 49.3911C81.2349 48.9957 81.2077 48.5935 81.1305 48.5095C81.072 48.4459 81.004 48.4535 80.7431 48.5526C80.1553 48.7757 80.0205 48.8153 79.8369 48.8183C79.5469 48.8231 79.4897 48.77 79.0625 48.0986C78.882 47.8148 78.8758 47.8101 78.7684 47.872C78.7081 47.9068 78.5738 48.0782 78.4698 48.2529C77.9702 49.0929 77.5396 49.3032 76.8082 49.0648C76.4725 48.9553 75.8439 48.8722 75.3166 48.8677C73.9116 48.8554 73.3412 49.6798 73.9142 50.8943C74.0921 51.2713 74.2724 51.5018 74.4301 51.5537C74.4775 51.5693 74.6888 51.5332 74.8996 51.4735C75.4006 51.3316 75.6421 51.342 75.9263 51.5179C76.1518 51.6575 76.4398 52.0321 76.69 52.5114C76.8731 52.862 77.1055 53.0772 77.3325 53.1061C77.6452 53.146 78.0953 52.9291 78.6159 52.4878C78.7462 52.3774 78.8601 52.265 78.869 52.238C78.8778 52.211 78.9021 52.1945 78.9228 52.2013C78.9435 52.2081 78.9988 52.1707 79.0457 52.1183C79.1683 51.9812 79.5177 51.774 79.5876 51.7971C79.7014 51.8345 79.7479 52.0128 79.6747 52.1312C79.6366 52.1928 79.5864 52.2488 79.5632 52.2557C79.5399 52.2626 79.2839 52.4707 78.9943 52.718C78.4263 53.2031 77.9491 53.4921 77.622 53.5489C77.4799 53.5735 77.3242 53.5549 77.1185 53.4887C76.755 53.3717 76.5966 53.2195 76.2938 52.6959C75.8919 52.0009 75.8448 51.945 75.5915 51.8616C75.4017 51.7992 75.3122 51.8015 75.0837 51.8744C74.6544 52.0114 74.5743 52.0165 74.2956 51.9248C73.9563 51.8131 73.7723 51.6165 73.5234 51.0996C73.2376 50.5063 73.191 49.8587 73.4012 49.4015C73.833 48.462 74.9781 48.206 76.87 48.6259C77.5653 48.7802 77.691 48.7147 78.1679 47.9489C78.2996 47.7375 78.4581 47.5223 78.5203 47.4708C78.6661 47.3498 78.8679 47.3395 79.0533 47.4434C79.195 47.5229 79.5737 48.0087 79.6456 48.2034C79.7185 48.4008 80.0487 48.3985 80.4382 48.198C80.7666 48.029 81.1686 47.9874 81.3461 48.1041ZM75.7122 52.8378C76.1879 53.3358 76.2485 53.6245 76.0082 54.2483C75.7737 54.8569 75.3773 55.2173 74.8502 55.3012C74.4584 55.3637 73.4671 55.0096 72.782 54.5627C72.0608 54.0921 71.633 53.2884 71.9104 52.925C72.147 52.6152 72.5118 52.5382 73.2407 52.6443C73.9912 52.7536 74.2583 52.7426 74.8618 52.5776C75.1932 52.487 75.453 52.5665 75.7122 52.8378ZM74.7756 53.0423C74.3037 53.1738 73.9237 53.1844 73.2452 53.0849C72.6388 52.9961 72.566 52.9955 72.3874 53.0788C72.2119 53.1606 72.2003 53.2175 72.3123 53.4452C72.4988 53.824 73.0025 54.2366 73.6967 54.5793C74.3495 54.9015 74.6691 54.9522 75.0194 54.789C75.3527 54.6337 75.5143 54.4419 75.6468 54.0444C75.7471 53.7433 75.7537 53.6765 75.696 53.5443C75.6369 53.4089 75.2761 52.9832 75.1912 52.9487C75.1733 52.9415 74.9863 52.9836 74.7756 53.0423ZM76.2971 55.1182C76.338 55.216 76.2857 55.4031 75.8283 56.794C74.8391 59.8023 73.6379 62.8038 73.021 63.8091C72.4426 64.7515 72.0026 65.1329 71.7441 64.9156C71.6148 64.8069 71.6808 64.6681 71.9317 64.5213C72.2515 64.3341 72.5044 63.9677 72.9864 62.9931C73.628 61.6955 74.6162 59.1092 75.5333 56.3268C75.8433 55.3865 75.9783 55.0261 76.031 54.998C76.1355 54.9424 76.244 54.9915 76.2971 55.1182Z" fill="white" stroke="white"/>
<path fill-rule="evenodd" clip-rule="evenodd" d="M51.0052 30.0253C50.3481 30.2104 49.9096 31.0102 49.5432 32.6919C49.4179 33.2668 49.2683 33.9473 49.2109 34.2043C49.051 34.9184 48.5921 35.8685 48.3775 35.9295C48.272 35.9595 48.0217 35.9066 47.8214 35.8119C47.621 35.717 47.1835 35.632 46.8489 35.6227C46.3035 35.6076 46.2133 35.6404 45.9765 35.9395C45.8313 36.123 45.6565 36.4767 45.588 36.7253C45.2064 38.1108 45.1769 40.981 45.532 42.1672C45.7453 42.88 46.1956 43.5113 46.7732 43.9079C47.0018 44.0649 47.1887 44.2426 47.1887 44.3031C47.1887 44.3635 47.0316 44.4618 46.8397 44.5214C45.1614 45.0433 43.5361 46.0914 43.151 46.9C42.9119 47.4023 42.9619 48.2437 43.2643 48.8049C43.8262 49.8478 45.4058 50.9257 47.135 51.4464C48.2868 51.7931 50.286 51.8191 51.1618 51.4987C51.9224 51.2204 52.6941 50.7992 52.8729 50.5648C52.9503 50.4634 53.0801 50.3805 53.1614 50.3805C53.6015 50.3805 52.9838 62.4389 52.2993 67.2094C51.7909 70.7528 51.0748 73.1098 50.2494 73.9566C49.8304 74.3864 49.7901 74.5669 50.0497 74.8493C50.2597 75.0776 50.6781 74.9997 51.0012 74.6719C51.498 74.168 52.1576 72.6994 52.4692 71.4037C52.8031 70.0157 53.141 68.1591 53.2983 66.8487C53.3638 66.3026 53.4622 65.488 53.5168 65.0383C53.809 62.6367 54.1269 57.4049 54.2921 52.2834C54.4278 48.0724 54.425 48.0443 53.86 48.0448C53.6434 48.0449 53.5084 48.1644 53.2796 48.5584C52.3647 50.1335 50.8925 50.8388 48.8302 50.6898C47.5939 50.6004 47.0697 50.4401 45.7928 49.7601C44.4891 49.066 43.7067 48.0946 43.9614 47.4865C44.2698 46.7501 45.4624 46.084 48.1014 45.1742C49.2653 44.7729 49.6584 44.5094 49.6584 44.1306C49.6584 43.8013 49.2923 43.4895 48.9055 43.4895C48.4542 43.4895 47.399 43.1515 47.0808 42.9051C46.9178 42.7788 46.6701 42.4252 46.5302 42.1191C46.291 41.5954 46.2767 41.4452 46.2886 39.5769C46.3059 36.813 46.5169 36.2752 47.3909 36.7667C47.5692 36.867 47.9672 36.949 48.2756 36.949C48.8002 36.949 48.8661 36.9151 49.301 36.4213C49.5567 36.1312 49.7658 35.8001 49.7658 35.6855C49.7658 35.571 49.8087 35.4274 49.8611 35.3664C49.9492 35.2639 50.1407 34.4768 50.4279 33.0363C50.612 32.1135 50.9563 31.2288 51.1828 31.0969C51.3542 30.9972 51.4956 31.0646 51.9885 31.4806C53.0989 32.4178 53.3619 32.6065 53.7562 32.7494C54.3789 32.9748 54.54 32.8975 55.9392 31.7032C56.5305 31.1984 56.5473 31.1924 56.735 31.4112C56.8404 31.5342 57.0088 32.0193 57.1091 32.4893C57.5911 34.7488 58.3713 35.5408 60.1196 35.5457C60.922 35.5479 62.3383 35.8264 63.4799 36.2064C66.5218 37.2189 67.1675 39.4956 65.0678 41.804C64.4159 42.5205 63.863 42.9056 63.4858 42.9056C63.3724 42.9056 62.9418 42.668 62.5292 42.3775C61.5484 41.6874 61.0194 41.5322 60.2811 41.7175C59.695 41.8646 58.8073 42.4942 57.9267 43.3872C57.2824 44.0406 56.6277 44.3525 56.1171 44.2497C55.4138 44.1079 54.596 43.2867 53.7856 41.9087C53.5827 41.5638 53.4167 41.2265 53.4167 41.1592C53.4167 41.092 53.3761 41.0368 53.3266 41.0368C53.277 41.0368 53.1841 40.9119 53.1202 40.7592C52.953 40.36 52.3457 39.6353 52.1784 39.6353C51.9062 39.6353 51.6792 40.0021 51.7531 40.3225C51.7915 40.4893 51.8602 40.6525 51.9054 40.6853C51.9507 40.718 52.3556 41.3755 52.8051 42.1464C53.6868 43.6583 54.5119 44.6616 55.1777 45.0315C55.4669 45.1921 55.8162 45.2655 56.3073 45.2688C57.1751 45.2748 57.6253 45.0495 58.651 44.0956C60.0122 42.8297 60.1535 42.7387 60.7598 42.7387C61.2138 42.7387 61.4055 42.81 61.8469 43.1431C62.6765 43.7692 62.8456 43.8399 63.5126 43.8399C64.3244 43.8399 64.8611 43.5338 65.7658 42.5552C66.8043 41.4318 67.3648 40.0095 67.2358 38.8252C66.9709 36.392 64.6805 34.9683 60.298 34.5125C58.6872 34.345 58.4625 34.1046 57.9769 32.0289C57.8428 31.4556 57.6533 30.8541 57.5558 30.6923C57.3269 30.3122 56.8986 30.1396 56.4244 30.2362C56.062 30.3101 54.8994 31.1228 54.606 31.5075C54.3083 31.8976 53.597 31.6481 52.8986 30.9087C52.3098 30.2852 51.4714 29.8941 51.0052 30.0253ZM59.8058 44.8454C58.425 45.6137 58.0891 46.2185 58.1648 47.7998C58.2387 49.3424 58.8384 50.4467 59.9167 51.0257C60.7184 51.4562 63.11 51.3935 64.9063 50.895C66.7976 50.3701 68.2921 48.8786 67.9513 47.8558C67.6607 46.9837 66.9278 46.5405 65.2787 46.2396C63.581 45.9299 63.0122 45.7075 61.8265 44.8896C61.1753 44.4404 60.558 44.4269 59.8058 44.8454ZM61.6824 45.9989C62.6078 46.6441 63.4208 46.9491 64.9562 47.2276C66.3283 47.4765 66.486 47.5293 66.8123 47.8487C67.1331 48.1628 67.1178 48.2993 66.7142 48.7285C66.0425 49.4429 64.6621 49.9983 62.9198 50.2553C61.2818 50.4969 60.5558 50.3744 59.9153 49.7479C59.3062 49.152 59.0935 48.6006 59.0899 47.6085C59.0871 46.8568 59.1204 46.7017 59.3389 46.4468C59.5626 46.1859 60.6438 45.4954 60.8517 45.4807C60.8954 45.4776 61.2692 45.7108 61.6824 45.9989ZM56.9232 49.5429C56.7654 49.7326 56.7454 50.1922 56.7449 53.66C56.7437 61.1603 57.2048 68.8021 57.8226 71.5205C58.4018 74.0689 59.0808 75.2525 59.7931 74.9551C60.1495 74.8063 60.1056 74.4451 59.6684 73.9292C59.1109 73.2713 58.8252 72.2598 58.4769 69.7102C58.0133 66.3161 57.7172 59.7659 57.7135 52.8274C57.7123 50.4824 57.6769 49.5716 57.5831 49.4695C57.397 49.2671 57.1278 49.2971 56.9232 49.5429Z" fill="white" stroke="white"/>
<defs>
<filter id="filter0_dii_370_25060" x="0" y="0.98877" width="112" height="118.022" filterUnits="userSpaceOnUse" color-interpolation-filters="sRGB">
<feFlood flood-opacity="0" result="BackgroundImageFix"/>
<feColorMatrix in="SourceAlpha" type="matrix" values="0 0 0 0 0 0 0 0 0 0 0 0 0 0 0 0 0 0 127 0" result="hardAlpha"/>
<feOffset dy="6"/>
<feGaussianBlur stdDeviation="8"/>
<feComposite in2="hardAlpha" operator="out"/>
<feColorMatrix type="matrix" values="0 0 0 0 0 0 0 0 0 0 0 0 0 0 0 0 0 0 0.25 0"/>
<feBlend mode="normal" in2="BackgroundImageFix" result="effect1_dropShadow_370_25060"/>
<feBlend mode="normal" in="SourceGraphic" in2="effect1_dropShadow_370_25060" result="shape"/>
<feColorMatrix in="SourceAlpha" type="matrix" values="0 0 0 0 0 0 0 0 0 0 0 0 0 0 0 0 0 0 127 0" result="hardAlpha"/>
<feOffset dx="-1.12" dy="1.12"/>
<feGaussianBlur stdDeviation="0.56"/>
<feComposite in2="hardAlpha" operator="arithmetic" k2="-1" k3="1"/>
<feColorMatrix type="matrix" values="0 0 0 0 1 0 0 0 0 1 0 0 0 0 1 0 0 0 0.558 0"/>
<feBlend mode="normal" in2="shape" result="effect2_innerShadow_370_25060"/>
<feColorMatrix in="SourceAlpha" type="matrix" values="0 0 0 0 0 0 0 0 0 0 0 0 0 0 0 0 0 0 127 0" result="hardAlpha"/>
<feOffset dx="1.12" dy="-1.12"/>
<feGaussianBlur stdDeviation="0.56"/>
<feComposite in2="hardAlpha" operator="arithmetic" k2="-1" k3="1"/>
<feColorMatrix type="matrix" values="0 0 0 0 0.84 0 0 0 0 0.84 0 0 0 0 0.84 0 0 0 0.558 0"/>
<feBlend mode="normal" in2="effect2_innerShadow_370_25060" result="effect3_innerShadow_370_25060"/>
</filter>
<radialGradient id="paint0_radial_370_25060" cx="0" cy="0" r="1" gradientUnits="userSpaceOnUse" gradientTransform="translate(56 54) rotate(90) scale(44 40)">
<stop stop-color="white"/>
<stop offset="1" stop-color="white" stop-opacity="0.21"/>
</radialGradient>
</defs>
</svg>
