<svg width="25" height="20" fill="none" xmlns="http://www.w3.org/2000/svg"><path d="M21.26 2.3c-1.55-.7-3.2-1.22-4.93-1.52-.03 0-.06 0-.08.04-.21.37-.45.87-.61 1.26a18.42 18.42 0 0 0-5.53 0c-.17-.4-.41-.89-.63-1.26A.08.08 0 0 0 9.4.78a19.9 19.9 0 0 0-4.95 1.55C1.3 7.03.45 11.6.87 16.11c0 .02.02.04.03.05a20.07 20.07 0 0 0 6.05 3.06c.03 0 .06 0 .08-.03.47-.64.88-1.3 1.24-2.01a.08.08 0 0 0-.05-.1c-.65-.26-1.28-.56-1.88-.9a.08.08 0 0 1-.01-.13l.37-.3a.07.07 0 0 1 .08 0c3.96 1.8 8.25 1.8 12.16 0 .03-.02.06-.02.08 0l.38.3c.04.03.04.1 0 .12-.61.36-1.24.65-1.9.9a.08.08 0 0 0-.04.11c.37.7.78 1.37 1.24 2 .02.04.05.05.08.04a20 20 0 0 0 6.05-3.06.08.08 0 0 0 .03-.05 20.29 20.29 0 0 0-3.6-13.8ZM8.86 13.37c-1.2 0-2.18-1.1-2.18-2.44 0-1.34.97-2.44 2.18-2.44 1.22 0 2.2 1.1 2.17 2.44 0 1.34-.96 2.44-2.17 2.44Zm8.04 0c-1.2 0-2.18-1.1-2.18-2.44 0-1.34.97-2.44 2.18-2.44 1.22 0 2.2 1.1 2.17 2.44 0 1.34-.95 2.44-2.17 2.44Z" fill="#fff"/></svg>